<?xml version="1.0" encoding="UTF-8"?>
<svg version="1.1" xmlns="http://www.w3.org/2000/svg" width="512" height="512">
<path d="M0 0 C6.35302805 6.19420235 8.20294329 14.26771467 10.609375 22.5625 C10.98104797 23.82336426 11.35272095 25.08422852 11.73565674 26.38330078 C12.51795073 29.0409673 13.29374309 31.70042148 14.06494141 34.36132812 C15.04984824 37.75753048 16.05127542 41.14859585 17.05767441 44.53848267 C18.021557 47.79382859 18.97103776 51.05331962 19.921875 54.3125 C20.28118103 55.52309082 20.64048706 56.73368164 21.01068115 57.98095703 C24.74802907 70.9707526 24.74802907 70.9707526 22.375 77.5625 C17.25429 85.41425533 10.39767814 87.10654964 1.75 89.609375 C0.4610121 89.99412051 -0.827553 90.38028496 -2.11572266 90.76776123 C-4.84544912 91.58646963 -7.57744576 92.39687202 -10.31152344 93.20092773 C-14.41429637 94.40898232 -18.5088185 95.64321549 -22.6015625 96.88476562 C-28.22783312 98.59017919 -33.85595819 100.28920331 -39.48657227 101.98022461 C-40.21455552 102.19887649 -40.94253878 102.41752836 -41.69258213 102.64280605 C-43.1922238 103.09321467 -44.69186876 103.54361233 -46.19151688 103.99399948 C-53.49182974 106.18711526 -60.7909342 108.38425036 -68.08984375 110.58203125 C-68.911696 110.82947649 -69.73354824 111.07692173 -70.5803051 111.33186531 C-81.70728483 114.68279115 -92.82813774 118.05310234 -103.94140625 121.44921875 C-105.27962738 121.85805801 -106.61784861 122.26689691 -107.95606995 122.67573547 C-110.64133342 123.4962019 -113.32657358 124.31674462 -116.0118103 125.13729858 C-117.36203935 125.5498685 -118.71226925 125.96243564 -120.0625 126.375 C-120.73049747 126.57913639 -121.39849495 126.78327278 -122.08673477 126.99359512 C-142.47394096 133.22247426 -162.88859636 139.35619188 -183.3203125 145.4375 C-184.48765112 145.78501375 -185.65498974 146.1325275 -186.85770226 146.49057198 C-198.5916378 149.98335963 -210.32666859 153.47241758 -222.06449509 156.95210838 C-226.47176881 158.259179 -230.87835753 159.5685489 -235.284832 160.87831116 C-237.33506836 161.48706186 -239.3856264 162.09473048 -241.43654251 162.70118713 C-251.88594961 165.79122615 -262.29533573 168.94788308 -272.60981274 172.46600246 C-273.62229312 172.81088506 -273.62229312 172.81088506 -274.65522766 173.16273499 C-275.52057365 173.46078836 -275.52057365 173.46078836 -276.40340137 173.76486301 C-279.41435873 174.73084728 -282.45711132 175.57838668 -285.5 176.4375 C-284.84209579 176.43809709 -284.18419158 176.43869418 -283.50635087 176.43930936 C-244.52602465 176.47519209 -205.54577801 176.53181378 -166.56552365 176.61542095 C-161.88661894 176.62543858 -157.20771389 176.63528268 -152.52880859 176.64501953 C-151.59731065 176.6469609 -150.6658127 176.64890228 -149.70608754 176.65090248 C-134.61727175 176.68193574 -119.52847118 176.69890683 -104.43962948 176.71069422 C-88.96064718 176.72309892 -73.48174482 176.75058489 -58.00281298 176.79211307 C-48.44908275 176.81726801 -38.89548507 176.83061583 -29.34172125 176.82892957 C-22.79309603 176.82889985 -16.24460597 176.84350012 -9.6960334 176.86966428 C-5.91605823 176.8843329 -2.13636024 176.89249396 1.64363861 176.88330269 C5.74060596 176.87350913 9.83683798 176.89449363 13.93374634 176.91851807 C15.13024516 176.91075765 16.32674398 176.90299723 17.55950034 176.89500165 C23.64421732 176.95839582 27.86633877 177.0392642 32.5 181.4375 C35.07057085 185.06905672 35.87552452 187.52359099 35.88031673 191.95545101 C35.89297665 193.610738 35.89297665 193.610738 35.90589231 195.29946512 C35.89988227 196.50645691 35.89387222 197.71344869 35.88768005 198.95701599 C35.89575836 200.88655258 35.89575836 200.88655258 35.90399987 202.8550697 C35.91847123 206.42375763 35.91420457 209.99221494 35.90683305 213.56091559 C35.90210784 217.410353 35.91460548 221.25974005 35.92485046 225.10916138 C35.94205646 232.64973056 35.94287476 240.19021648 35.93763756 247.7308002 C35.93359802 253.85907115 35.93503685 259.98731747 35.94038582 266.11558723 C35.94113424 266.98741624 35.94188266 267.85924524 35.94265376 268.75749331 C35.94418522 270.52854625 35.94572357 272.2995992 35.94726873 274.07065213 C35.96100026 290.68343987 35.95555147 307.29618054 35.94408352 323.9089672 C35.93415017 339.11067972 35.9470924 354.31227054 35.97101771 369.51396429 C35.99539396 385.11963549 36.00502023 400.72524997 35.99836498 416.33093983 C35.99486952 425.09373931 35.99712641 433.85644517 36.01461601 442.61923027 C36.02931957 450.07872174 36.02999768 457.53805368 36.0125451 464.99754196 C36.00401745 468.80389582 36.00192825 472.60996446 36.01719666 476.41630363 C36.03353908 480.54143505 36.0189318 484.66587488 36.00120544 488.79100037 C36.01081045 489.99576143 36.02041546 491.2005225 36.03031152 492.44179147 C35.9761718 498.54367976 35.91870059 502.79426078 31.5 507.4375 C27.34987384 510.52809234 24.27692203 510.8137841 19.15481663 510.81781673 C18.42146755 510.82247665 17.68811848 510.82713657 16.93254671 510.8319377 C14.46775388 510.84391736 12.00350927 510.83448104 9.53871155 510.82518005 C7.75675525 510.82935167 5.97480161 510.83482824 4.19285291 510.84149987 C-0.70979925 510.85599571 -5.61228389 510.85169685 -10.51494539 510.84433305 C-15.79997309 510.83961391 -21.08496388 510.85210009 -26.36997986 510.86235046 C-36.72596855 510.87956834 -47.08189665 510.8803723 -57.43789595 510.87513756 C-65.85306424 510.87110026 -74.2682146 510.87253418 -82.68338203 510.87788582 C-84.47820144 510.87900845 -84.47820144 510.87900845 -86.30927982 510.88015376 C-88.73986177 510.8816852 -91.17044371 510.88322355 -93.60102565 510.88476873 C-116.40721847 510.89850453 -139.21337701 510.89304845 -162.01956905 510.88158352 C-182.8956458 510.87164952 -203.77163394 510.88459281 -224.64769702 510.90851771 C-246.07066862 510.93288489 -267.4935989 510.94252248 -288.91658407 510.93586498 C-300.94901802 510.93236753 -312.9813838 510.93463952 -325.0138073 510.95211601 C-335.25654688 510.96680821 -345.49917029 510.96751252 -355.74190753 510.9500451 C-360.9699713 510.94150821 -366.19782727 510.93945099 -371.42588043 510.95469666 C-376.20947476 510.96847378 -380.99268189 510.96387092 -385.77625341 510.94445742 C-387.50903792 510.94067558 -389.24185294 510.94368177 -390.97461044 510.95406907 C-393.32653522 510.96716823 -395.67710956 510.95572032 -398.02897549 510.93807125 C-399.98996265 510.93791025 -399.98996265 510.93791025 -401.99056572 510.93774599 C-407.16742713 510.1998196 -410.178055 508.15092446 -413.35287285 504.03591925 C-414.6529481 501.09104904 -414.86758913 499.073946 -414.85403442 495.86279202 C-414.85670728 494.74641777 -414.85938013 493.63004351 -414.86213398 492.47983974 C-414.84978309 491.25829301 -414.83743219 490.03674628 -414.82470703 488.77818298 C-414.82359263 487.47624026 -414.82247824 486.17429754 -414.82133007 484.83290201 C-414.81871179 481.97393992 -414.80648548 479.11523237 -414.78695107 476.25633621 C-414.75516355 471.60281637 -414.74396419 466.94937318 -414.7351532 462.29576111 C-414.72042117 455.53236647 -414.69597116 448.76906401 -414.66616821 442.00572014 C-414.61998388 431.27965969 -414.6073123 420.55367748 -414.6003418 409.82752991 C-414.59757218 406.15072146 -414.59463787 402.47391315 -414.59169006 398.79710484 C-414.59096857 397.87799038 -414.59024707 396.95887593 -414.58950371 396.01190953 C-414.58096073 385.54463465 -414.56683491 375.07737096 -414.54931641 364.61010742 C-414.5477251 363.65341892 -414.5461338 362.69673042 -414.54449427 361.71105135 C-414.51784059 346.28704085 -414.46107628 330.86325835 -414.39553118 315.43937092 C-414.32904082 299.55552958 -414.30555093 283.67198692 -414.31800461 267.78801161 C-414.32360568 258.8897536 -414.30921758 249.99247563 -414.24346924 241.09443474 C-413.30913708 191.8666144 -413.30913708 191.8666144 -425.48202515 144.59321785 C-427.50653722 138.31723877 -427.59833872 132.00029036 -425 125.9375 C-419.7332426 120.6707426 -412.62066486 118.64696281 -405.6015625 116.6328125 C-404.76773041 116.38634979 -403.93389832 116.13988708 -403.07479858 115.88595581 C-400.42688717 115.10438376 -397.77621009 114.33280039 -395.125 113.5625 C-391.6575701 112.54860512 -388.19151778 111.53013167 -384.7265625 110.5078125 C-383.85676758 110.25136459 -382.98697266 109.99491669 -382.09082031 109.73069763 C-376.76399912 108.14742932 -371.48645141 106.45991355 -366.2265625 104.66796875 C-353.1320989 100.22509554 -339.86080513 96.32998101 -326.62298584 92.34048462 C-323.38298238 91.36358345 -320.14358636 90.38467556 -316.90415192 89.40588951 C-284.0630139 79.48422338 -251.19830203 69.6408122 -218.33587646 59.78994751 C-181.60946046 48.78066541 -144.89894761 37.72060232 -108.20820618 26.5930481 C-96.49587011 23.04112225 -84.78141955 19.49620978 -73.06640625 15.953125 C-71.27225583 15.41045673 -69.47810706 14.86778302 -67.68395996 14.32510376 C-60.73799399 12.2241714 -53.79202779 10.12323992 -46.84588623 8.02288818 C-42.88072003 6.82388854 -38.91567783 5.62447971 -34.95072746 4.42476654 C-33.49391199 3.98404527 -32.03705067 3.54347548 -30.58014107 3.10306549 C-28.59033812 2.50155153 -26.60069192 1.89952191 -24.61108398 1.29736328 C-22.93972633 0.79186447 -22.93972633 0.79186447 -21.23460388 0.27615356 C-14.07011113 -1.92106682 -7.07948659 -3.16048509 0 0 Z " fill="#E63950" transform="translate(451.5,1.5625)"/>
<path d="M0 0 C4.50463764 2.35219555 6.72940213 4.49663812 9 9 C9.37719816 11.63387769 9.37719816 11.63387769 9.38031673 14.51795101 C9.38875668 15.62147567 9.39719662 16.72500032 9.40589231 17.86196512 C9.39988227 19.06895691 9.39387222 20.27594869 9.38768005 21.51951599 C9.39575836 23.44905258 9.39575836 23.44905258 9.40399987 25.4175697 C9.41847123 28.98625763 9.41420457 32.55471494 9.40683305 36.12341559 C9.40210784 39.972853 9.41460548 43.82224005 9.42485046 47.67166138 C9.44205646 55.21223056 9.44287476 62.75271648 9.43763756 70.2933002 C9.43359802 76.42157115 9.43503685 82.54981747 9.44038582 88.67808723 C9.44113424 89.54991624 9.44188266 90.42174524 9.44265376 91.31999331 C9.44418522 93.09104625 9.44572357 94.8620992 9.44726873 96.63315213 C9.46100026 113.24593987 9.45555147 129.85868054 9.44408352 146.4714672 C9.43415017 161.67317972 9.4470924 176.87477054 9.47101771 192.07646429 C9.49539396 207.68213549 9.50502023 223.28774997 9.49836498 238.89343983 C9.49486952 247.65623931 9.49712641 256.41894517 9.51461601 265.18173027 C9.52931957 272.64122174 9.52999768 280.10055368 9.5125451 287.56004196 C9.50401745 291.36639582 9.50192825 295.17246446 9.51719666 298.97880363 C9.53353908 303.10393505 9.5189318 307.22837488 9.50120544 311.35350037 C9.51561295 313.16064196 9.51561295 313.16064196 9.53031152 315.00429147 C9.4761718 321.10617976 9.41870059 325.35676078 5 330 C0.69350862 333.6263193 -3.43285124 333.41756811 -8.8014679 333.36076355 C-9.68778733 333.36332682 -10.57410676 333.3658901 -11.48728436 333.36853105 C-14.45695866 333.37347217 -17.42612449 333.35697046 -20.39575195 333.34057617 C-22.5245411 333.33972997 -24.65333112 333.3402049 -26.78211975 333.34190369 C-32.5627076 333.34276533 -38.34310914 333.32511195 -44.12365365 333.30418181 C-50.16414718 333.28544339 -56.20464485 333.28366681 -62.24516296 333.28010559 C-73.68439513 333.27077681 -85.12354141 333.24615168 -96.56273574 333.21605712 C-109.58556645 333.1825391 -122.60840123 333.16603363 -135.63126433 333.15097082 C-162.42089052 333.11960291 -189.21044045 333.06682615 -216 333 C-216.46364427 324.95697895 -216.81320066 316.91971149 -217.02652866 308.86654508 C-217.12905524 305.12433388 -217.26731994 301.39138304 -217.49464417 297.6545105 C-219.03017984 271.72245213 -219.03017984 271.72245213 -211.91752625 263.27430725 C-207.15751497 258.63157774 -201.89116741 255.00716767 -196.1875 251.625 C-195.55679785 251.22801155 -194.9260957 250.8310231 -194.27628136 250.4220047 C-191.07963457 248.42529713 -187.82694793 246.84204902 -184.35546875 245.38671875 C-182.39519062 244.48250059 -180.43864475 243.57014895 -178.48583984 242.64990234 C-177.08999664 241.99583405 -177.08999664 241.99583405 -175.66595459 241.32855225 C-169.65584197 238.33347174 -164.18867417 234.4737358 -158.70449829 230.621521 C-155.23836945 228.21379237 -151.67231642 225.95040223 -148.13671875 223.64624023 C-144.88911138 221.14411312 -143.29349593 218.88048779 -142 215 C-141.72947517 212.91849427 -141.72947517 212.91849427 -141.6875 210.6875 C-141.63142578 209.57955078 -141.63142578 209.57955078 -141.57421875 208.44921875 C-142.49771954 203.13697107 -145.75215796 199.96709274 -149.97290039 196.94238281 C-151.58967126 195.85046791 -153.21518582 194.77142576 -154.84765625 193.703125 C-155.72455109 193.11868622 -156.60144592 192.53424744 -157.50491333 191.93209839 C-159.38145887 190.68228728 -161.26080202 189.43666828 -163.14266968 188.19488525 C-166.09095648 186.23104527 -169.00607643 184.22493342 -171.91723633 182.20654297 C-181.43088127 175.66369337 -190.33335692 169.69133725 -201.39697266 166.17919922 C-207.55882232 163.38569606 -212.24123748 158.49552272 -216 153 C-217.51849239 147.96997462 -217.64662692 143.10400262 -217.625 137.890625 C-217.65693849 136.4724676 -217.69217782 135.05438109 -217.73054504 133.63638306 C-218.0321104 119.07777698 -217.1607445 104.5062355 -216 90 C-215.25802872 90.18510635 -214.51605743 90.37021271 -213.75160217 90.56092834 C-203.92197327 92.87694298 -194.12613289 94.27819085 -184.0625 95.0625 C-183.24023296 95.12680836 -182.41796593 95.19111671 -181.57078171 95.25737381 C-161.75077355 96.58511312 -144.84343885 93.50693091 -129.55078125 80.21777344 C-125.6006133 76.62196343 -121.78605648 72.91400739 -118.03125 69.1171875 C-117.31333286 68.39307729 -117.31333286 68.39307729 -116.58091235 67.6543386 C-106.2085757 57.14846018 -96.42751707 46.18015372 -87.04687786 34.78434658 C-62.66612323 5.21144195 -40.05805648 -11.46312342 0 0 Z " fill="#AE2538" transform="translate(478,179)"/>
<path d="M0 0 C6.35302805 6.19420235 8.20294329 14.26771467 10.609375 22.5625 C10.98104797 23.82336426 11.35272095 25.08422852 11.73565674 26.38330078 C12.51795073 29.0409673 13.29374309 31.70042148 14.06494141 34.36132812 C15.04984824 37.75753048 16.05127542 41.14859585 17.05767441 44.53848267 C18.021557 47.79382859 18.97103776 51.05331962 19.921875 54.3125 C20.28118103 55.52309082 20.64048706 56.73368164 21.01068115 57.98095703 C24.74802907 70.9707526 24.74802907 70.9707526 22.375 77.5625 C17.25429 85.41425533 10.39767814 87.10654964 1.75 89.609375 C0.4610121 89.99412051 -0.827553 90.38028496 -2.11572266 90.76776123 C-4.84544912 91.58646963 -7.57744576 92.39687202 -10.31152344 93.20092773 C-14.41429636 94.40898232 -18.50881862 95.64321512 -22.6015625 96.88476562 C-28.22815262 98.59028105 -33.85660695 100.28937322 -39.48754883 101.98046875 C-40.2155837 102.19913353 -40.94361856 102.41779831 -41.6937151 102.64308929 C-43.19324986 103.09346696 -44.69278672 103.54383766 -46.19232559 103.99420166 C-53.48720117 106.18581288 -60.78076844 108.38177616 -68.07421875 110.578125 C-68.89558508 110.82544876 -69.71695141 111.07277252 -70.56320763 111.32759094 C-85.12284422 115.71258124 -99.67024398 120.13689216 -114.21324158 124.57670021 C-123.31870694 127.3559648 -132.42780365 130.12329382 -141.53717041 132.88973999 C-149.63986606 135.35076273 -157.74141341 137.81547612 -165.84101582 140.28666306 C-177.24674157 143.76652258 -188.65561715 147.23574936 -200.06927967 150.68949509 C-205.77572976 152.41664389 -211.48055896 154.14876992 -217.18179321 155.89306641 C-222.56330977 157.53935979 -227.94876827 159.17205435 -233.33746147 160.79469681 C-235.33992675 161.40027637 -237.34090848 162.01078585 -239.34028816 162.62647629 C-242.09657973 163.47439172 -244.85765928 164.30444284 -247.62060547 165.13037109 C-248.42227551 165.38154694 -249.22394556 165.63272278 -250.04990864 165.89151001 C-255.9758037 167.63223329 -260.60923667 167.6771235 -266.4206543 165.18505859 C-267.37883057 164.65734863 -268.33700684 164.12963867 -269.32421875 163.5859375 C-270.42056641 162.98974609 -271.51691406 162.39355469 -272.64648438 161.77929688 C-273.82687055 161.12378369 -275.00720774 160.46818227 -276.1875 159.8125 C-277.43101637 159.13232103 -278.67516986 158.45330569 -279.91992188 157.77539062 C-282.50297549 156.36744258 -285.08322799 154.95454951 -287.66162109 153.53808594 C-293.58249285 150.2908255 -299.54320896 147.11827395 -305.5 143.9375 C-307.82830181 142.69043422 -310.15642621 141.44303716 -312.484375 140.1953125 C-317.79771338 137.34877527 -323.11232092 134.50462032 -328.42741394 131.66136169 C-333.64419345 128.87019149 -338.85767858 126.07289735 -344.07080078 123.27490234 C-346.39336207 122.03044867 -348.71688007 120.78805474 -351.04248047 119.54931641 C-354.42675545 117.74603032 -357.80739933 115.93609517 -361.1875 114.125 C-362.21584961 113.57956543 -363.24419922 113.03413086 -364.30371094 112.47216797 C-365.23860352 111.96959473 -366.17349609 111.46702148 -367.13671875 110.94921875 C-367.95873779 110.51053467 -368.78075684 110.07185059 -369.62768555 109.61987305 C-371.5 108.4375 -371.5 108.4375 -372.5 106.4375 C-333.35084248 94.41335253 -294.16913149 82.5024333 -254.9375 70.75 C-253.97597519 70.46194111 -253.01445038 70.17388222 -252.02378845 69.87709427 C-244.34714138 67.57732617 -236.67041255 65.27783096 -228.99352646 62.97886086 C-212.44872732 58.02421165 -195.9091761 53.05249906 -179.375 48.0625 C-178.18481262 47.70330475 -176.99462524 47.3441095 -175.76837158 46.97402954 C-169.38589339 45.04752559 -163.00367479 43.12016311 -156.62158203 41.19238281 C-148.75241872 38.8154296 -140.88279821 36.43999221 -133.01313019 34.06471062 C-123.41216028 31.16683772 -113.81142091 28.26820159 -104.21075439 25.36932373 C-99.00665967 23.79798643 -93.80243832 22.22706901 -88.59817505 20.65629005 C-85.61340217 19.75520507 -82.62880555 18.85353807 -79.64422607 17.95181274 C-75.78013146 16.78449366 -71.91519269 15.62003082 -68.04962158 14.45761108 C-59.02101512 11.73883921 -50.00924955 8.97904941 -41.02490234 6.1171875 C-38.57405408 5.34330317 -36.12281617 4.57066659 -33.67143822 3.79846191 C-31.4421696 3.09005154 -29.21944929 2.3634264 -26.99641418 1.63574219 C-18.15725103 -1.18861682 -8.8557816 -3.95347393 0 0 Z " fill="#B4DAFE" transform="translate(451.5,1.5625)"/>
<path d="M0 0 C0.64304581 0.34310715 1.28609161 0.68621429 1.94862366 1.03971863 C4.04338967 2.15954549 6.13301738 3.28860776 8.22265625 4.41796875 C9.68397945 5.20166685 11.14557035 5.98486596 12.60742188 6.76757812 C21.3746388 11.46840581 30.11461616 16.21926158 38.83569336 21.00512695 C46.25323217 25.06722695 53.71845136 29.0364651 61.19113159 32.99581909 C71.5492267 38.48470226 81.9072541 43.97417161 92.22265625 49.54296875 C93.5984082 50.27773437 93.5984082 50.27773437 95.00195312 51.02734375 C95.82630859 51.47464844 96.65066406 51.92195313 97.5 52.3828125 C98.212771 52.76687256 98.92554199 53.15093262 99.65991211 53.54663086 C101.28515625 54.60546875 101.28515625 54.60546875 102.28515625 56.60546875 C99.43161804 57.565707 96.5773607 58.52370888 93.72265625 59.48046875 C92.92279297 59.74988281 92.12292969 60.01929688 91.29882812 60.296875 C90.50927734 60.56113281 89.71972656 60.82539063 88.90625 61.09765625 C88.18880615 61.3385498 87.4713623 61.57944336 86.73217773 61.82763672 C83.6040886 62.82195898 80.44118463 63.70374636 77.28515625 64.60546875 C83.88515625 64.93546875 90.48515625 65.26546875 97.28515625 65.60546875 C82.98145767 82.29311709 68.297456 98.60772582 53.16015625 114.54296875 C52.69700248 115.03142792 52.23384871 115.51988709 51.75665998 116.02314806 C10.00599755 159.9982397 10.00599755 159.9982397 -14.85186768 161.39649963 C-27.31131471 161.68612589 -39.89524184 159.44505348 -51.71484375 155.60546875 C-51.7029451 154.55788391 -51.69104645 153.51029907 -51.67878723 152.43096924 C-51.57210656 142.37613657 -51.52680232 132.32248844 -51.53606129 122.2670784 C-51.53899373 117.10182025 -51.52301 111.93832007 -51.45776367 106.7734375 C-51.16966166 82.80098169 -52.31019517 61.64220809 -60.62046719 38.98916245 C-63.6491191 30.69856079 -65.83760601 22.55858068 -62.21484375 14.10546875 C-56.85025009 8.74087509 -49.48474889 6.68868095 -42.359375 4.5546875 C-41.49471115 4.29162308 -40.6300473 4.02855865 -39.73918152 3.75752258 C-37.92596087 3.20855855 -36.11159242 2.66337258 -34.29614258 2.12182617 C-31.5205331 1.29092994 -28.75156194 0.44006562 -25.98242188 -0.41210938 C-24.21260655 -0.94523016 -22.44243584 -1.47717289 -20.671875 -2.0078125 C-19.43580254 -2.39046013 -19.43580254 -2.39046013 -18.17475891 -2.78083801 C-10.75900989 -4.95793112 -6.74842011 -3.66947909 0 0 Z " fill="#EDF5FF" transform="translate(88.71484375,113.39453125)"/>
<path d="M0 0 C5.47480784 3.11586379 10.68371683 6.65421474 15.9140625 10.16015625 C22.1108624 14.30234846 28.3296456 18.41023676 34.55859375 22.50390625 C69.44521223 45.43393464 69.44521223 45.43393464 83.34765625 54.78125 C84.33556152 55.43746338 85.3234668 56.09367676 86.34130859 56.76977539 C91.3664037 60.172212 95.56744255 63.22082261 98.34765625 68.78125 C98.93509781 74.42972655 98.73968594 79.0529662 95.34765625 83.78125 C89.47401178 88.87089633 82.97476283 93.14872891 76.4765625 97.38671875 C75.55536118 97.99203934 74.63415985 98.59735992 73.68504333 99.22102356 C70.76240213 101.1404983 67.8364266 103.05481363 64.91015625 104.96875 C62.02770615 106.8587579 59.14596904 108.74984887 56.26434326 110.64111328 C54.36671929 111.8865014 52.46881143 113.13145706 50.57061768 114.37597656 C43.85489293 118.78174208 37.16435168 123.22391358 30.48582458 127.68580627 C24.33667137 131.79316552 18.16492371 135.86407541 11.97265625 139.90625 C10.99039063 140.55078125 10.008125 141.1953125 8.99609375 141.859375 C8.0525 142.47554687 7.10890625 143.09171875 6.13671875 143.7265625 C4.89462646 144.53891357 4.89462646 144.53891357 3.62744141 145.36767578 C-1.17562931 148.34580594 -4.91450518 149.62851962 -10.65234375 148.78125 C-15.56468016 147.12395671 -18.23796295 144.63748897 -20.78410149 140.05380249 C-22.59311141 135.31886827 -22.21369554 130.25910132 -22.18579102 125.25585938 C-22.19440659 124.00787064 -22.20302216 122.7598819 -22.2118988 121.47407532 C-22.23065756 118.06677031 -22.23147278 114.66044161 -22.22257733 111.25316048 C-22.21745112 108.40276578 -22.22477306 105.55245746 -22.23204941 102.70207167 C-22.24902245 95.97562003 -22.24550834 89.2493954 -22.22875977 82.52294922 C-22.21183324 75.59549551 -22.22768549 68.6686717 -22.25998265 61.74128675 C-22.28671306 55.78095336 -22.29394554 49.82081563 -22.28546757 43.86042833 C-22.28054923 40.30603579 -22.28269419 36.75202226 -22.30325508 33.19767761 C-22.32509005 29.23374931 -22.30617436 25.27057568 -22.28344727 21.30664062 C-22.30098557 19.55151909 -22.30098557 19.55151909 -22.31887817 17.76094055 C-22.23704361 10.74456299 -21.48021914 6.97889692 -16.65234375 1.78125 C-11.20778802 -1.96944395 -5.97868298 -2.74720043 0 0 Z " fill="#ECF4FE" transform="translate(238.65234375,316.21875)"/>
<path d="M0 0 C0.99894287 0.52166748 1.99788574 1.04333496 3.02709961 1.58081055 C4.6243689 2.42832886 4.6243689 2.42832886 6.25390625 3.29296875 C7.91595093 4.16659058 7.91595093 4.16659058 9.61157227 5.05786133 C22.03266116 11.60809683 34.37669632 18.30383258 46.625 25.171875 C54.16295837 29.39737393 61.71884487 33.48733288 69.4777832 37.29296875 C81.48587076 43.22948466 93.21114725 49.7943113 104.81640625 56.48046875 C103.81640625 58.48046875 103.81640625 58.48046875 102.04464626 59.22352695 C101.26690381 59.45636355 100.48916136 59.68920015 99.68785095 59.92909241 C98.79772308 60.19964951 97.90759521 60.4702066 96.99049377 60.7489624 C95.51394569 61.18465546 95.51394569 61.18465546 94.00756836 61.62915039 C92.97664062 61.93995041 91.94571289 62.25075043 90.88354492 62.57096863 C87.45590232 63.60199808 84.02496986 64.6215692 80.59375 65.640625 C78.21522875 66.35232085 75.83685842 67.06452123 73.45863342 67.77720642 C67.82119206 69.46443208 62.18144023 71.14376405 56.54078442 72.82020801 C50.7826543 74.5324886 45.02863395 76.25829054 39.27484798 77.985116 C34.35797937 79.45942228 29.4392645 80.92748715 24.5199604 82.39364433 C22.16197558 83.09713386 19.80453132 83.80243796 17.44764519 84.50959969 C14.14392441 85.49972011 10.8378427 86.48152652 7.53100586 87.46118164 C6.0757122 87.89991104 6.0757122 87.89991104 4.59101868 88.34750366 C-8.86595153 92.30735049 -8.86595153 92.30735049 -14.61669922 90.25561523 C-15.74994629 89.62727783 -16.88319336 88.99894043 -18.05078125 88.3515625 C-18.6788266 88.01100327 -19.30687195 87.67044403 -19.95394897 87.31956482 C-21.99982861 86.20453106 -24.02860211 85.0616302 -26.05859375 83.91796875 C-27.49206004 83.13031166 -28.92664701 82.34469092 -30.36230469 81.56103516 C-33.2683502 79.97143266 -36.16831343 78.37154192 -39.06347656 76.76220703 C-44.82090306 73.56569318 -50.62864015 70.46468495 -56.43359375 67.35546875 C-58.54071938 66.21940782 -60.64748921 65.08268671 -62.75390625 63.9453125 C-69.00561165 60.573163 -75.26748876 57.22018112 -81.5307312 53.86953735 C-85.59597386 51.69369014 -89.65875995 49.51325516 -93.72216797 47.33398438 C-96.05851509 46.08292306 -98.3957406 44.83373207 -100.73486328 43.58789062 C-104.11623639 41.78611993 -107.49394689 39.97764523 -110.87109375 38.16796875 C-111.89928223 37.62261475 -112.9274707 37.07726074 -113.98681641 36.51538086 C-114.92187012 36.01272705 -115.85692383 35.51007324 -116.8203125 34.9921875 C-118.05334106 34.33416138 -118.05334106 34.33416138 -119.3112793 33.6628418 C-121.18359375 32.48046875 -121.18359375 32.48046875 -122.18359375 30.48046875 C-117.40242691 29.01665532 -112.62116545 27.55315127 -107.83984375 26.08984375 C-107.10068033 25.86362146 -106.36151691 25.63739918 -105.59995461 25.40432167 C-96.6467289 22.66438639 -87.69272017 19.92703855 -78.73706055 17.19506836 C-77.50906943 16.82045487 -77.50906943 16.82045487 -76.25627041 16.43827343 C-72.96488949 15.43425787 -69.67348804 14.43030983 -66.38199425 13.42666435 C-57.4830244 10.71307028 -48.58625392 7.99296575 -39.69741821 5.24630737 C-35.95907976 4.092502 -32.21824226 2.94699474 -28.4765625 1.80407715 C-26.83255863 1.29963009 -25.18979245 0.79113028 -23.54833984 0.27844238 C-21.33214058 -0.41334383 -19.11217062 -1.09124441 -16.890625 -1.765625 C-15.69928955 -2.13357178 -14.5079541 -2.50151855 -13.28051758 -2.88061523 C-8.01786944 -3.9663346 -4.64276453 -2.43960572 0 0 Z " fill="#4B2746" transform="translate(201.18359375,77.51953125)"/>
<path d="M0 0 C0.68785473 0.03492381 1.37570947 0.06984761 2.08440828 0.10582972 C19.91117913 1.02925533 37.63228177 2.71498964 55.3125 5.1875 C52.07005543 9.02337053 48.82175856 12.80320422 45.27001953 16.359375 C44.53550568 17.09704102 43.80099182 17.83470703 43.04421997 18.59472656 C42.26908051 19.3678418 41.49394104 20.14095703 40.6953125 20.9375 C39.87932587 21.75444336 39.06333923 22.57138672 38.22262573 23.41308594 C36.5043007 25.13208836 34.78472464 26.84984107 33.06396484 28.56640625 C30.44905299 31.17597064 27.83950999 33.79081766 25.23046875 36.40625 C23.55240378 38.08365397 21.87402854 39.76074761 20.1953125 41.4375 C19.4242215 42.21061523 18.65313049 42.98373047 17.8586731 43.78027344 C17.11785492 44.51793945 16.37703674 45.25560547 15.61376953 46.015625 C14.97456573 46.6540332 14.33536194 47.29244141 13.67678833 47.95019531 C12.32019313 49.2339291 10.94128602 50.49666056 9.5061245 51.69191551 C5.12428689 55.35782588 1.61795196 59.13819585 -1.79556656 63.71303177 C-12.99220097 78.62095232 -26.08556594 94.54756521 -45.2974205 97.85700607 C-60.42953209 99.63060498 -75.70326802 98.88555068 -90.87037301 97.92451787 C-97.84644782 97.49054741 -104.82439234 97.28865289 -111.81071162 97.09979701 C-126.11683 96.7081838 -140.40178813 96.04520464 -154.6875 95.1875 C-153.82909012 94.206035 -152.97068024 93.22457001 -152.08625793 92.21336365 C-149.26197876 88.91839654 -146.62324203 85.51895917 -144.01865101 82.04919147 C-134.68825134 69.64243075 -124.73370692 57.80848513 -114.375 46.25 C-113.501105 45.27391659 -112.62721001 44.29783318 -111.72683334 43.29217148 C-78.78622296 6.97694113 -48.25274795 -2.5097792 0 0 Z " fill="#4B2746" transform="translate(251.6875,173.8125)"/>
<path d="M0 0 C6.91557768 0.43404912 13.83304675 0.6358816 20.75896311 0.82472086 C34.9413965 1.21630083 49.10096369 1.87919034 63.26250911 2.73701787 C62.40442653 3.71848287 61.54634395 4.69994786 60.66225886 5.71115422 C57.83668998 9.00759964 55.19287128 12.40736337 52.58254409 15.8753264 C43.22935998 28.27793538 33.25880582 40.11327307 22.88750911 51.67451787 C22.01275809 52.65060128 21.13800708 53.62668469 20.23674846 54.63234639 C-2.81577728 80.02473907 -24.78877964 96.60370854 -60.01618314 98.32247019 C-70.33724089 98.75157981 -80.61427795 98.46551495 -90.92499089 97.92451787 C-91.94781242 97.87213216 -91.94781242 97.87213216 -92.99129701 97.81868815 C-110.65824382 96.8955164 -128.21853811 95.21027449 -145.73749089 92.73701787 C-142.49504632 88.90114734 -139.24674946 85.12131365 -135.69501042 81.56514287 C-134.96049657 80.82747685 -134.22598271 80.08981084 -133.46921086 79.32979131 C-132.6940714 78.55667607 -131.91893193 77.78356084 -131.12030339 76.98701787 C-130.30431676 76.17007451 -129.48833013 75.35313115 -128.64761662 74.51143193 C-126.92929159 72.79242951 -125.20971553 71.0746768 -123.48895574 69.35811162 C-120.87404388 66.74854723 -118.26450088 64.13370021 -115.65545964 61.51826787 C-113.97739468 59.8408639 -112.29901943 58.16377026 -110.62030339 56.48701787 C-109.84921239 55.71390264 -109.07812139 54.9407874 -108.28366399 54.14424443 C-107.54284581 53.40657842 -106.80202764 52.6689124 -106.03876042 51.90889287 C-105.39955663 51.27048467 -104.76035283 50.63207646 -104.10177922 49.97432256 C-102.74529538 48.69069416 -101.36657595 47.42800064 -99.93173337 46.23260236 C-95.54986976 42.56580252 -92.03678982 38.78221853 -88.61666799 34.2114861 C-63.70371353 1.12974665 -39.62247168 -2.53304366 0 0 Z " fill="#D4E7FD" transform="translate(362.7374908924103,176.26298213005066)"/>
<path d="M0 0 C6.35302805 6.19420235 8.20294329 14.26771467 10.609375 22.5625 C10.98104797 23.82336426 11.35272095 25.08422852 11.73565674 26.38330078 C12.51795073 29.0409673 13.29374309 31.70042148 14.06494141 34.36132812 C15.04984824 37.75753048 16.05127542 41.14859585 17.05767441 44.53848267 C18.021557 47.79382859 18.97103776 51.05331962 19.921875 54.3125 C20.28118103 55.52309082 20.64048706 56.73368164 21.01068115 57.98095703 C24.74802907 70.9707526 24.74802907 70.9707526 22.375 77.5625 C17.04394083 85.73679073 9.47225175 87.39247487 0.5 90 C-0.73878906 90.37318359 -1.97757813 90.74636719 -3.25390625 91.13085938 C-5.74557694 91.87784094 -8.24039876 92.61439309 -10.73828125 93.34033203 C-13.3054981 94.08910361 -15.86285811 94.85276725 -18.41796875 95.64013672 C-19.66191406 96.01541504 -20.90585937 96.39069336 -22.1875 96.77734375 C-23.30511719 97.12015381 -24.42273438 97.46296387 -25.57421875 97.81616211 C-30.60924724 98.88543343 -33.56384178 97.02011946 -38.0234375 94.69921875 C-39.11487061 94.13291748 -40.20630371 93.56661621 -41.33081055 92.9831543 C-42.51233959 92.36402244 -43.6937326 91.74463091 -44.875 91.125 C-46.10386603 90.48402253 -47.33278927 89.84315474 -48.56176758 89.20239258 C-56.6924706 84.95359144 -64.76621757 80.60564353 -72.80517578 76.18579102 C-80.2293034 72.110178 -87.69894884 68.12472236 -95.1819458 64.15866089 C-97.23806091 63.06882825 -99.29367894 61.97806414 -101.34912109 60.88696289 C-102.02382446 60.52880997 -102.69852783 60.17065704 -103.39367676 59.801651 C-104.06684937 59.44429367 -104.74002197 59.08693634 -105.43359375 58.71875 C-109.42917328 56.59767796 -113.42499727 54.47707866 -117.42236328 52.359375 C-121.05590875 50.43361151 -124.68438936 48.49848279 -128.3125 46.5625 C-129.40336914 45.98580566 -130.49423828 45.40911133 -131.61816406 44.81494141 C-132.61686523 44.28046387 -133.61556641 43.74598633 -134.64453125 43.1953125 C-135.51440674 42.7327002 -136.38428223 42.27008789 -137.28051758 41.79345703 C-139.36320044 40.52107549 -140.87316625 39.24258507 -142.5 37.4375 C-125.67401877 31.58637711 -108.58347293 26.57881828 -91.5223999 21.46832275 C-86.02809346 19.82208704 -80.53487929 18.17221517 -75.04193115 16.52145386 C-71.91901697 15.58311504 -68.79510787 14.64819261 -65.67047119 13.71560669 C-58.44157499 11.55403784 -51.22451846 9.36484501 -44.03581429 7.07264042 C-40.77371755 6.03262286 -37.50805334 5.00403615 -34.24241257 3.97521019 C-32.70519702 3.4867971 -31.16990738 2.99227136 -29.63682938 2.49102211 C-9.30636358 -4.1546266 -9.30636358 -4.1546266 0 0 Z " fill="#351B33" transform="translate(451.5,1.5625)"/>
<path d="M0 0 C4.37797042 2.27858117 7.0859107 4.40766858 9 9 C9.26970287 11.74839578 9.38053809 14.26046784 9.34057617 17.00317383 C9.34093778 17.80666354 9.34129938 18.61015326 9.34167194 19.43799114 C9.33944033 22.02792839 9.31662987 24.61721052 9.29296875 27.20703125 C9.28855555 28.81034026 9.28549646 30.41365358 9.28381348 32.01696777 C9.26811199 37.94887795 9.22622815 43.88069547 9.1875 49.8125 C9.125625 63.074375 9.06375 76.33625 9 90 C-40.5 90 -90 90 -141 90 C-129.27297498 76.31847081 -117.1415464 63.02817297 -104.73587608 49.95951176 C-100.09576687 45.06458296 -95.52021054 40.13225233 -91.0546875 35.0769043 C-65.22323608 5.92783825 -40.46720771 -11.2078808 0 0 Z " fill="#351B33" transform="translate(478,179)"/>
<path d="M0 0 C0.64304581 0.34310715 1.28609161 0.68621429 1.94862366 1.03971863 C4.04338967 2.15954549 6.13301738 3.28860776 8.22265625 4.41796875 C9.68397945 5.20166685 11.14557035 5.98486596 12.60742188 6.76757812 C21.3746388 11.46840581 30.11461616 16.21926158 38.83569336 21.00512695 C46.25323217 25.06722695 53.71845136 29.0364651 61.19113159 32.99581909 C71.5492267 38.48470226 81.9072541 43.97417161 92.22265625 49.54296875 C93.5984082 50.27773437 93.5984082 50.27773437 95.00195312 51.02734375 C95.82630859 51.47464844 96.65066406 51.92195313 97.5 52.3828125 C98.212771 52.76687256 98.92554199 53.15093262 99.65991211 53.54663086 C101.28515625 54.60546875 101.28515625 54.60546875 102.28515625 56.60546875 C99.5156155 57.5469298 96.74461525 58.483675 93.97265625 59.41796875 C93.20630859 59.67900391 92.43996094 59.94003906 91.65039062 60.20898438 C89.20243303 61.03174191 86.74563088 61.82093779 84.28515625 62.60546875 C83.47825946 62.86981877 82.67136267 63.1341688 81.84001446 63.40652943 C74.61336734 65.59662921 67.98981394 66.01727672 60.4699707 65.94604492 C59.23941452 65.946483 58.00885834 65.94692108 56.74101257 65.94737244 C53.40270275 65.94565401 50.06496588 65.93072349 46.72675729 65.90965056 C43.22477205 65.89075646 39.72277725 65.88912338 36.2207489 65.88557434 C29.60534031 65.87629094 22.9900824 65.85172803 16.37473983 65.82152587 C8.83656003 65.78786567 1.29837262 65.7714668 -6.23986375 65.75643957 C-21.73161068 65.72517462 -37.2232077 65.67248721 -52.71484375 65.60546875 C-54.30373479 60.70510751 -55.86916914 55.79804533 -57.41455078 50.88378906 C-57.94190188 49.21775856 -58.47529178 47.55362571 -59.01513672 45.89160156 C-66.26147436 23.54760684 -66.26147436 23.54760684 -62.21484375 14.10546875 C-56.85025009 8.74087509 -49.48474889 6.68868095 -42.359375 4.5546875 C-41.49471115 4.29162308 -40.6300473 4.02855865 -39.73918152 3.75752258 C-37.92596087 3.20855855 -36.11159242 2.66337258 -34.29614258 2.12182617 C-31.5205331 1.29092994 -28.75156194 0.44006562 -25.98242188 -0.41210938 C-24.21260655 -0.94523016 -22.44243584 -1.47717289 -20.671875 -2.0078125 C-19.43580254 -2.39046013 -19.43580254 -2.39046013 -18.17475891 -2.78083801 C-10.75900989 -4.95793112 -6.74842011 -3.66947909 0 0 Z " fill="#D4E7FD" transform="translate(88.71484375,113.39453125)"/>
<path d="M0 0 C10.12450992 5.62472773 10.12450992 5.62472773 13.68334961 8.03930664 C14.48546371 8.58079849 15.28757782 9.12229034 16.11399841 9.68019104 C16.95165237 10.25107956 17.78930634 10.82196808 18.65234375 11.41015625 C20.00085167 12.32238197 20.00085167 12.32238197 21.37660217 13.2530365 C24.23261687 15.1860357 27.0851748 17.12406183 29.9375 19.0625 C32.74813981 20.967891 35.55949844 22.87221507 38.37124634 24.77597046 C40.21921211 26.02796215 42.06620461 27.28139166 43.91220093 28.5362854 C48.33488384 31.53913676 52.77085545 34.51575552 57.25048828 37.43310547 C58.07464737 37.97237167 58.89880646 38.51163788 59.74794006 39.06724548 C61.28436584 40.06993613 62.82513199 41.0660219 64.37107849 42.05397034 C68.94751682 45.0467601 72.49746217 47.99492433 75 53 C75.58744156 58.64847655 75.39202969 63.2717162 72 68 C66.12635553 73.08964633 59.62710658 77.36747891 53.12890625 81.60546875 C51.74710426 82.51344963 51.74710426 82.51344963 50.33738708 83.43977356 C47.41474588 85.3592483 44.48877035 87.27356363 41.5625 89.1875 C38.67909922 91.07813125 35.79641191 92.96984571 32.91390991 94.86184692 C31.0257401 96.10092358 29.13709349 97.33927401 27.24795532 98.57687378 C20.2470811 103.16686311 13.27793892 107.80287351 6.33973694 112.48710632 C1.10823965 116 1.10823965 116 0 116 C0 77.72 0 39.44 0 0 Z " fill="#D4E7FD" transform="translate(262,332)"/>
<path d="M0 0 C0 18.81 0 37.62 0 57 C-3.36747117 56.15813221 -5.6317603 55.28205069 -8.6484375 53.69921875 C-9.56020752 53.22274902 -10.47197754 52.7462793 -11.41137695 52.25537109 C-12.38937256 51.73797363 -13.36736816 51.22057617 -14.375 50.6875 C-15.39360107 50.15205566 -16.41220215 49.61661133 -17.46166992 49.06494141 C-27.14829028 43.95618811 -36.7716523 38.73382377 -46.36328125 33.44921875 C-49.0191797 31.98945827 -51.68093434 30.54084717 -54.34375 29.09375 C-56.00017315 28.18781652 -57.65643136 27.28158138 -59.3125 26.375 C-60.07796143 25.9610498 -60.84342285 25.54709961 -61.63208008 25.12060547 C-66.88612894 22.22774212 -66.88612894 22.22774212 -68 20 C-59.28203479 17.39071938 -50.56363398 14.78290094 -41.84466648 12.17697144 C-37.79653615 10.96701357 -33.74856027 9.75654403 -29.70092773 8.54492188 C-25.79799819 7.37663545 -21.89467562 6.20967121 -17.9910717 5.04364014 C-16.49852223 4.59754954 -15.00611735 4.15097488 -13.51385689 3.70391846 C-11.43091886 3.07999312 -9.34748295 2.45775883 -7.26391602 1.8359375 C-6.07588882 1.48063965 -4.88786163 1.1253418 -3.66383362 0.75927734 C-1 0 -1 0 0 0 Z " fill="#D4E7FD" transform="translate(262,53)"/>
<path d="M0 0 C14.85 0 29.7 0 45 0 C38.24645108 7.8791404 38.24645108 7.8791404 34.95410156 11.19116211 C34.22024231 11.93140121 33.48638306 12.67164032 32.73028564 13.43431091 C31.57215363 14.59411217 31.57215363 14.59411217 30.390625 15.77734375 C29.58260437 16.58869278 28.77458374 17.40004181 27.94207764 18.23597717 C26.24573645 19.93735345 24.54806242 21.63740178 22.84912109 23.33618164 C20.23897808 25.94853123 17.63695737 28.56879838 15.03515625 31.18945312 C13.38330156 32.84423834 11.73097465 34.49855233 10.078125 36.15234375 C9.29794006 36.9397142 8.51775513 37.72708466 7.71392822 38.53831482 C6.99267761 39.2564888 6.271427 39.97466278 5.52832031 40.71459961 C4.57617645 41.668881 4.57617645 41.668881 3.60479736 42.6424408 C2 44 2 44 0 44 C0 29.48 0 14.96 0 0 Z " fill="#361D35" transform="translate(262,179)"/>
<path d="M0 0 C0 14.19 0 28.38 0 43 C-14.19 43 -28.38 43 -43 43 C-36.248284 35.12299801 -36.248284 35.12299801 -33.0300293 31.90063477 C-32.3129631 31.18041641 -31.59589691 30.46019806 -30.85710144 29.71815491 C-29.72707451 28.59116432 -29.72707451 28.59116432 -28.57421875 27.44140625 C-27.78602249 26.65225327 -26.99782623 25.86310028 -26.18574524 25.05003357 C-24.53220354 23.39581525 -22.87741391 21.74284351 -21.22143555 20.09106445 C-18.67445048 17.54947814 -16.1328997 15.00254411 -13.59179688 12.45507812 C-11.98209176 10.84603304 -10.37207689 9.23729777 -8.76171875 7.62890625 C-7.99824631 6.86340958 -7.23477386 6.0979129 -6.44816589 5.30921936 C-5.7468605 4.61106613 -5.04555511 3.9129129 -4.32299805 3.19360352 C-3.70377975 2.57518082 -3.08456146 1.95675812 -2.44657898 1.31959534 C-1 0 -1 0 0 0 Z " fill="#EDF5FF" transform="translate(262,226)"/>
<path d="M0 0 C4.98072455 1.4877615 9.35196638 3.59937999 13.91796875 6.02734375 C14.65702957 6.41692764 15.39609039 6.80651154 16.157547 7.207901 C17.71097904 8.02848273 19.26318145 8.85139606 20.81420898 9.67651367 C23.18668851 10.93706883 25.56469689 12.18670613 27.94335938 13.43554688 C29.45607425 14.23632763 30.96845582 15.03773839 32.48046875 15.83984375 C33.18987106 16.21181381 33.89927338 16.58378387 34.63017273 16.96702576 C37.85947955 18.69468633 40.50085016 20.33064242 43 23 C37.74623102 25.01510919 32.48984084 26.84980183 27.10546875 28.48046875 C26.03441643 28.80704216 26.03441643 28.80704216 24.94172668 29.14021301 C23.44894397 29.59440755 21.95574956 30.04725103 20.4621582 30.4987793 C18.17439514 31.19146789 15.888938 31.89142944 13.60351562 32.59179688 C12.14596709 33.034295 10.68828933 33.47636771 9.23046875 33.91796875 C8.54921432 34.12729538 7.8679599 34.33662201 7.1660614 34.55229187 C4.32739086 35.40448989 1.98320801 36 -1 36 C-1.02465098 31.03377651 -1.04283649 26.06758834 -1.05493164 21.10131836 C-1.0599719 19.41055684 -1.06680405 17.71979971 -1.07543945 16.02905273 C-1.08751857 13.60399293 -1.09323123 11.17899056 -1.09765625 8.75390625 C-1.10281754 7.99348526 -1.10797882 7.23306427 -1.11329651 6.44960022 C-1.11349238 4.6326743 -1.06197277 2.81586873 -1 1 C-0.67 0.67 -0.34 0.34 0 0 Z " fill="#361C34" transform="translate(263,112)"/>
</svg>
