<?xml version="1.0" encoding="UTF-8"?>
<svg version="1.1" xmlns="http://www.w3.org/2000/svg" width="500" height="500">
<path d="M0 0 C0.97142441 -0.00852997 1.94284882 -0.01705994 2.94371033 -0.02584839 C4.00301758 -0.02494202 5.06232483 -0.02403564 6.1537323 -0.02310181 C7.27448654 -0.02981903 8.39524078 -0.03653625 9.54995728 -0.04345703 C13.26061926 -0.06247843 16.97110075 -0.06636344 20.68180847 -0.06851196 C23.26007156 -0.07493733 25.83833391 -0.08166549 28.41659546 -0.08868408 C33.82443746 -0.10066746 39.23220778 -0.10444945 44.64006042 -0.10317993 C50.88060627 -0.10197934 57.1208058 -0.12306576 63.36126405 -0.15466726 C69.37447063 -0.18402742 75.38749001 -0.19115449 81.40077782 -0.18996048 C83.9544332 -0.1923201 86.50809116 -0.20116382 89.06170082 -0.21662521 C92.63563821 -0.23623674 96.20868662 -0.23046498 99.78263855 -0.21841431 C100.83587311 -0.22965332 101.88910767 -0.24089233 102.97425842 -0.25247192 C109.26337848 -0.19862954 113.03479784 0.54945492 118.16227722 4.26742554 C122.76566335 9.23423689 123.29016318 12.79020577 123.35514832 19.44174194 C123.36741455 20.53262115 123.36741455 20.53262115 123.37992859 21.64553833 C123.40474613 24.05334663 123.42129284 26.46109594 123.43571472 28.86898804 C123.44370024 30.10572329 123.44370024 30.10572329 123.45184708 31.36744308 C123.47856806 35.73497334 123.49794277 40.10247518 123.51237488 44.47006226 C123.52569092 48.07448841 123.55350118 51.67834532 123.59440613 55.28256226 C123.64389185 59.64329458 123.66851574 64.0035123 123.67560196 68.3645134 C123.68228911 70.02061964 123.69744473 71.67671554 123.72149277 73.33266068 C123.9528635 90.23468269 123.9528635 90.23468269 118.16227722 97.26742554 C114.03515849 101.39454427 109.72681295 103.08834323 103.91081238 103.49447632 C102.19837341 103.47876587 102.19837341 103.47876587 100.45133972 103.46273804 C99.20739441 103.45629272 97.9634491 103.44984741 96.68180847 103.44320679 C95.39661316 103.42644897 94.11141785 103.40969116 92.78727722 103.39242554 C91.47887878 103.3834021 90.17048035 103.37437866 88.82243347 103.36508179 C85.60219352 103.34157639 82.38233015 103.30871641 79.16227722 103.26742554 C79.49227722 105.24742554 79.82227722 107.22742554 80.16227722 109.26742554 C80.92153503 109.23262085 81.68079285 109.19781616 82.46305847 109.16195679 C83.95385925 109.12135132 83.95385925 109.12135132 85.47477722 109.07992554 C86.46091003 109.04512085 87.44704285 109.01031616 88.46305847 108.97445679 C91.16227722 109.26742554 91.16227722 109.26742554 92.99821472 110.62289429 C94.64269785 112.94614058 94.51029798 114.48325944 94.16227722 117.26742554 C93.50227722 118.25742554 92.84227722 119.24742554 92.16227722 120.26742554 C89.61875239 120.55402757 87.31940758 120.64600231 84.77507019 120.60800171 C83.63346436 120.60865883 83.63346436 120.60865883 82.46879578 120.60932922 C79.94709329 120.60723513 77.4260514 120.58387555 74.90446472 120.56039429 C73.1585476 120.55480052 71.41262578 120.55052939 69.66670227 120.54753113 C65.06670682 120.53606502 60.46699459 120.50658281 55.86711121 120.47341919 C51.17517427 120.44275624 46.48319167 120.42903388 41.79118347 120.41390991 C32.58142347 120.38171467 23.37187388 120.33049713 14.16227722 120.26742554 C12.65565625 117.25418359 12.9845735 114.58456177 13.16227722 111.26742554 C15.78474872 108.64495404 17.51250849 108.625246 21.16227722 108.26742554 C24.03727722 108.70492554 24.03727722 108.70492554 26.16227722 109.26742554 C26.49227722 107.61742554 26.82227722 105.96742554 27.16227722 104.26742554 C26.35073181 104.25284302 25.5391864 104.2382605 24.70304871 104.22323608 C21.00149529 104.14844922 17.30081343 104.05188793 13.59977722 103.95492554 C12.32296082 103.93236694 11.04614441 103.90980835 9.7306366 103.88656616 C1.40304226 103.6486349 -3.87241261 102.91096565 -10.83772278 98.26742554 C-10.83772278 97.60742554 -10.83772278 96.94742554 -10.83772278 96.26742554 C-11.49772278 96.26742554 -12.15772278 96.26742554 -12.83772278 96.26742554 C-18.10327275 88.43576966 -17.42037039 80.14048458 -17.36897278 71.07211304 C-17.37167098 69.39397965 -17.37555612 67.71584779 -17.38056946 66.03771973 C-17.38644589 62.53259291 -17.37795974 59.02787561 -17.35920715 55.52279663 C-17.33638299 51.03927581 -17.34957383 46.55671108 -17.37349701 42.07322502 C-17.38797536 38.61241495 -17.38334035 35.15183033 -17.37298584 31.69101334 C-17.370326 30.0380657 -17.37356211 28.3850973 -17.38290405 26.73217392 C-17.39310776 24.42029575 -17.37751928 22.10995165 -17.3553009 19.79818726 C-17.35211853 18.48550873 -17.34893616 17.1728302 -17.34565735 15.82037354 C-16.75266327 11.67244334 -15.4484985 9.50602849 -12.83772278 6.26742554 C-10.58772278 4.89242554 -10.58772278 4.89242554 -8.83772278 4.26742554 C-8.83772278 3.60742554 -8.83772278 2.94742554 -8.83772278 2.26742554 C-5.76436593 0.48731649 -3.53708291 0.01406903 0 0 Z M-4.83772278 14.26742554 C-5.44878933 17.53320561 -5.44878933 17.53320561 -5.3553009 21.35336304 C-5.36231018 22.07074646 -5.36931946 22.78812988 -5.37654114 23.5272522 C-5.39415133 25.89937003 -5.38248881 28.27029552 -5.36897278 30.64242554 C-5.37166685 32.29005157 -5.37554857 33.93767605 -5.38056946 35.58529663 C-5.38646856 39.03873834 -5.37788865 42.49176628 -5.35920715 45.94515991 C-5.33641693 50.37419569 -5.34953787 54.80226201 -5.37349701 59.23126221 C-5.38794411 62.63362954 -5.3833541 66.03576664 -5.37298584 69.43814087 C-5.37031552 71.07123936 -5.37359905 72.70435869 -5.38290405 74.33743286 C-5.39305233 76.61934862 -5.37759548 78.89968974 -5.3553009 81.18148804 C-5.35211853 82.48037964 -5.34893616 83.77927124 -5.34565735 85.11752319 C-5.15774978 88.29775816 -5.15774978 88.29775816 -3.09019375 89.93964386 C-0.56256934 91.42962239 0.80164109 91.64804327 3.70974731 91.66183472 C5.07024956 91.67885941 5.07024956 91.67885941 6.45823669 91.69622803 C7.93970184 91.69183212 7.93970184 91.69183212 9.45109558 91.68734741 C10.49703384 91.69581696 11.54297211 91.7042865 12.62060547 91.7130127 C16.08123401 91.73642936 19.54141917 91.73740373 23.00212097 91.73617554 C25.4058144 91.74327414 27.80950613 91.75097269 30.2131958 91.75924683 C35.2528301 91.7727023 40.29230771 91.77425549 45.33195496 91.7684021 C51.79310698 91.76250438 58.25350801 91.79309665 64.71451473 91.83351898 C69.67904721 91.859356 74.64339791 91.862277 79.60798836 91.85862732 C81.99025422 91.86032223 84.37252814 91.87000015 86.75472832 91.88777161 C90.08501979 91.90988176 93.41377855 91.90029851 96.74406433 91.88265991 C97.72968353 91.89592316 98.71530273 91.9091864 99.73078918 91.92285156 C104.19601921 91.8678409 106.50344227 91.71353678 110.27297974 89.16110229 C112.58664996 85.61744979 112.7954715 83.56989681 112.80924988 79.35336304 C112.82239227 78.34019012 112.82239227 78.34019012 112.83580017 77.30654907 C112.85772091 75.08451172 112.8432707 72.86448138 112.82633972 70.64242554 C112.82971004 69.0921287 112.83456447 67.54183445 112.84083557 65.99154663 C112.84819686 62.74666113 112.83752648 59.50246509 112.81413269 56.25765991 C112.78564404 52.10442223 112.8020522 47.95280002 112.83199501 43.79962158 C112.8500889 40.59957777 112.84430067 37.3999151 112.83135605 34.19985962 C112.82802775 32.66889249 112.83208891 31.13789042 112.84375381 29.60696411 C112.85649869 27.46421064 112.83704216 25.32404905 112.80924988 23.18148804 C112.80527191 21.96412964 112.80129395 20.74677124 112.79719543 19.49252319 C111.9391573 15.13407713 110.84569629 13.76154742 107.16227722 11.26742554 C103.68393191 10.55857718 100.28381986 10.60455751 96.74406433 10.65219116 C95.69637375 10.64664215 94.64868317 10.64109314 93.56924438 10.63537598 C90.10890356 10.62357274 86.64987006 10.64786172 83.18962097 10.67367554 C80.78496358 10.67538637 78.38030432 10.67532123 75.97564697 10.67355347 C70.93765913 10.67520706 65.90011607 10.69391455 60.86222839 10.72543335 C54.4000232 10.76513186 47.93840016 10.76947628 41.47609615 10.76197052 C36.51159315 10.75890332 31.54722139 10.77101218 26.58275032 10.7881012 C24.19968552 10.79513888 21.81660585 10.7982548 19.43353081 10.79740906 C16.10577805 10.79920377 12.77872721 10.82055798 9.45109558 10.84750366 C8.46345215 10.84457306 7.47580872 10.84164246 6.45823669 10.83862305 C5.5512352 10.84997284 4.6442337 10.86132263 3.70974731 10.87301636 C2.92349944 10.87674507 2.13725157 10.88047379 1.327178 10.88431549 C-1.43677125 11.3734357 -2.82056521 12.33719847 -4.83772278 14.26742554 Z " fill="#EE3634" transform="translate(34.83772277832031,189.73257446289063)"/>
<path d="M0 0 C0.91644287 0.00523682 1.83288574 0.01047363 2.77709961 0.01586914 C3.76645508 0.0190918 4.75581055 0.02231445 5.77514648 0.02563477 C6.81606445 0.03401367 7.85698242 0.04239258 8.92944336 0.05102539 C10.49662109 0.05779297 10.49662109 0.05779297 12.09545898 0.06469727 C14.68600996 0.07652627 17.27644895 0.0930085 19.86694336 0.11352539 C23.45530859 6.66332307 25.76155123 13.41508383 28.04400635 20.51434326 C31.91638768 32.54509672 36.07885826 44.41284062 40.86694336 56.11352539 C44.23861157 48.40890484 47.10000003 40.65902246 49.65600586 32.65649414 C50.66166131 29.71414093 51.80466709 26.90998116 53.05493164 24.06640625 C54.72494622 20.05003626 56.08021071 15.91359403 57.49194336 11.80102539 C58.1079397 10.01285419 58.72507123 8.22507353 59.34350586 6.43774414 C59.61243652 5.65488037 59.88136719 4.8720166 60.15844727 4.06542969 C60.86694336 2.11352539 60.86694336 2.11352539 61.86694336 0.11352539 C69.45694336 0.11352539 77.04694336 0.11352539 84.86694336 0.11352539 C84.86694336 27.83352539 84.86694336 55.55352539 84.86694336 84.11352539 C79.58694336 84.11352539 74.30694336 84.11352539 68.86694336 84.11352539 C68.53694336 66.62352539 68.20694336 49.13352539 67.86694336 31.11352539 C64.40194336 41.01352539 64.40194336 41.01352539 60.86694336 51.11352539 C58.69116211 56.67602539 58.69116211 56.67602539 57.7746582 58.89868164 C55.59976343 64.20547168 53.63059676 69.59668027 51.60327148 74.96118164 C51.26360352 75.85708008 50.92393555 76.75297852 50.57397461 77.67602539 C50.11728394 78.88452148 50.11728394 78.88452148 49.65136719 80.11743164 C48.86694336 82.11352539 48.86694336 82.11352539 47.86694336 84.11352539 C43.24694336 84.11352539 38.62694336 84.11352539 33.86694336 84.11352539 C33.49182617 82.95336914 33.11670898 81.79321289 32.73022461 80.59790039 C29.40728001 70.34112837 29.40728001 70.34112837 25.49194336 60.30102539 C21.69190521 51.34379261 18.33076709 42.20606267 14.86694336 33.11352539 C14.53694336 49.94352539 14.20694336 66.77352539 13.86694336 84.11352539 C8.25694336 84.11352539 2.64694336 84.11352539 -3.13305664 84.11352539 C-3.15560739 73.30894082 -3.17397157 62.50437176 -3.18486881 51.69976902 C-3.19009771 46.68330069 -3.19719547 41.66684924 -3.20849609 36.65039062 C-3.21932474 31.81342845 -3.22533343 26.97648255 -3.22793388 22.1395092 C-3.22978817 20.28984254 -3.23340886 18.44017682 -3.2387867 16.59051704 C-3.24599684 14.00905525 -3.24704759 11.42766157 -3.24658203 8.84619141 C-3.25017731 8.07367538 -3.25377258 7.30115936 -3.25747681 6.50523376 C-3.2450365 0.1727071 -3.2450365 0.1727071 0 0 Z " fill="#EDEDEE" transform="translate(193.133056640625,196.886474609375)"/>
<path d="M0 0 C5.61 0 11.22 0 17 0 C17.0093457 1.21059082 17.01869141 2.42118164 17.02832031 3.66845703 C17.06829948 8.1751741 17.1340804 12.68121422 17.20751953 17.1875 C17.23568321 19.13500245 17.2569206 21.08261822 17.27099609 23.03027344 C17.29248946 25.83587468 17.33917198 28.64012 17.390625 31.4453125 C17.39185364 32.31116974 17.39308228 33.17702698 17.39434814 34.06912231 C17.52770644 39.61752199 18.32519902 42.76387074 22 47 C25.72894305 48.08367197 29.21187264 47.76884955 33 47 C35.89683868 44.7984026 37.39297231 43.21405538 39 40 C39.15733249 37.01236645 39.25861415 34.04458849 39.31640625 31.0546875 C39.33718735 30.1696756 39.35796844 29.2846637 39.37937927 28.37283325 C39.44486598 25.54030259 39.50375562 22.70767775 39.5625 19.875 C39.60568606 17.95702143 39.64930037 16.03905246 39.69335938 14.12109375 C39.80054647 9.41415949 39.9018164 4.70713033 40 0 C45.61 0 51.22 0 57 0 C57 20.79 57 41.58 57 63 C51.39 63 45.78 63 40 63 C39.505 60.03 39.505 60.03 39 57 C38.52949219 57.42152344 38.05898438 57.84304688 37.57421875 58.27734375 C36.95160156 58.82519531 36.32898438 59.37304688 35.6875 59.9375 C35.07261719 60.48277344 34.45773437 61.02804687 33.82421875 61.58984375 C28.68025695 65.56622535 21.1322859 64.48895303 15 64 C9.64853891 62.49668879 5.88285758 59.80476263 3 55 C0.09173291 48.33238184 -0.40920832 42.26351944 -0.29296875 35.05859375 C-0.28872391 34.05031021 -0.28447906 33.04202667 -0.28010559 32.00318909 C-0.26344683 28.81434284 -0.22581877 25.626152 -0.1875 22.4375 C-0.17243661 20.26237898 -0.15875112 18.08724796 -0.14648438 15.91210938 C-0.1135853 10.60782423 -0.06189243 5.30402285 0 0 Z " fill="#E2E3E4" transform="translate(424,218)"/>
<path d="M0 0 C0.75152344 0.37382812 1.50304687 0.74765625 2.27734375 1.1328125 C2.84582031 1.41898438 3.41429687 1.70515625 4 2 C4 2.66 4 3.32 4 4 C4.66 4 5.32 4 6 4 C6 4.66 6 5.32 6 6 C6.66 6 7.32 6 8 6 C14.0954905 17.17881468 16.09082403 29.39894819 13 42 C9.58668955 50.26614748 4.29174768 55.58101494 -3.4375 59.9375 C-7.71276366 61.3086503 -12.10996408 61.31060875 -16.5625 61.375 C-17.28300537 61.38909912 -18.00351074 61.40319824 -18.74584961 61.41772461 C-27.46707498 61.33886724 -34.46652073 57.53347927 -40.625 51.375 C-47.80045122 41.94706086 -48.09674673 31.39951909 -47 20 C-46.00803063 14.87929325 -44.12615468 10.21351284 -41 6 C-40.34 6 -39.68 6 -39 6 C-38.77054687 5.39542969 -38.54109375 4.79085937 -38.3046875 4.16796875 C-36.63303562 1.39022386 -35.03778998 0.68246205 -32.125 -0.6875 C-31.26132812 -1.10386719 -30.39765625 -1.52023438 -29.5078125 -1.94921875 C-19.65898388 -6.07590862 -9.34020831 -4.71310695 0 0 Z M-25 13 C-25.33 13.99 -25.66 14.98 -26 16 C-26.66 16 -27.32 16 -28 16 C-30.12363562 20.31468825 -30.30222359 24.28246887 -30.25 29 C-30.25773437 29.69867188 -30.26546875 30.39734375 -30.2734375 31.1171875 C-30.25808241 35.18628563 -29.8011034 38.34061531 -28 42 C-27.34 42 -26.68 42 -26 42 C-25.67 42.99 -25.34 43.98 -25 45 C-21.77252945 47.15164703 -20.79494361 47.27245079 -17.0625 47.25 C-16.20785156 47.25515625 -15.35320312 47.2603125 -14.47265625 47.265625 C-11.88025433 46.98713633 -10.23485766 46.30669172 -8 45 C-8 44.34 -8 43.68 -8 43 C-7.34 43 -6.68 43 -6 43 C-2.33904221 35.06792478 -1.4644164 26.79297243 -4.25 18.375 C-5.68092427 14.96588595 -5.68092427 14.96588595 -8.1875 13.5 C-8.785625 13.335 -9.38375 13.17 -10 13 C-10 12.34 -10 11.68 -10 11 C-15.83926527 9.92297996 -19.87597012 9.41317908 -25 13 Z " fill="#EAEBEB" transform="translate(338,221)"/>
<path d="M0 0 C5.94 0 11.88 0 18 0 C20.01012266 5.3603271 21.8238354 10.57986872 23.375 16.0625 C26.92574043 29.32309463 26.92574043 29.32309463 32 42 C32.1858667 41.32122803 32.3717334 40.64245605 32.56323242 39.94311523 C41.74647887 6.50704225 41.74647887 6.50704225 45 0 C50.94 0 56.88 0 63 0 C61.87510122 8.99919022 61.87510122 8.99919022 60.77246094 11.88305664 C60.52840515 12.53476334 60.28434937 13.18647003 60.03289795 13.85792542 C59.63762909 14.87377968 59.63762909 14.87377968 59.234375 15.91015625 C58.95909973 16.64012314 58.68382446 17.37009003 58.40020752 18.12217712 C57.52505472 20.43884977 56.63823366 22.75081497 55.75 25.0625 C54.59470714 28.09344861 53.44457026 31.12632329 52.296875 34.16015625 C52.01589966 34.90085358 51.73492432 35.6415509 51.44543457 36.4046936 C49.14747104 42.50517588 47.06144984 48.66027214 45.05175781 54.86108398 C44.13122053 57.60837921 43.07607332 60.3098167 42 63 C35.4 63 28.8 63 22 63 C16.34211427 49.68732769 11.2437812 36.3269446 7.09204102 22.47045898 C5.74956272 18.06147268 4.16626842 14.09049568 2 10 C0.59232637 6.29559572 0 4.00898491 0 0 Z " fill="#E8E9E9" transform="translate(354,218)"/>
<path d="M0 0 C3.21279295 0.10355188 5.27809864 0.31017707 7.84204102 2.31591797 C9.39056637 4.69311365 10.56056588 7.07320489 11.72485352 9.65966797 C12.78721619 11.50523232 13.8703801 13.33899208 14.97485352 15.15966797 C15.45438477 15.99498047 15.93391602 16.83029297 16.42797852 17.69091797 C17.57842783 19.79517155 17.57842783 19.79517155 19.72485352 20.65966797 C20.04760254 20.08933838 20.37035156 19.51900879 20.70288086 18.93139648 C22.1630017 16.35846511 23.63130266 13.79029628 25.09985352 11.22216797 C25.60774414 10.32433594 26.11563477 9.42650391 26.63891602 8.50146484 C27.12875977 7.64746094 27.61860352 6.79345703 28.12329102 5.91357422 C28.57365723 5.12281494 29.02402344 4.33205566 29.48803711 3.51733398 C30.72485352 1.65966797 30.72485352 1.65966797 32.72485352 0.65966797 C37.34485352 0.65966797 41.96485352 0.65966797 46.72485352 0.65966797 C46.72485352 17.15966797 46.72485352 33.65966797 46.72485352 50.65966797 C42.76485352 50.65966797 38.80485352 50.65966797 34.72485352 50.65966797 C34.22985352 37.78966797 34.22985352 37.78966797 33.72485352 24.65966797 C32.30172852 26.86654297 30.87860352 29.07341797 29.41235352 31.34716797 C28.74852661 32.3752356 28.74852661 32.3752356 28.07128906 33.42407227 C27.71333252 33.98006104 27.35537598 34.5360498 26.98657227 35.10888672 C26.59260254 35.7113623 26.19863281 36.31383789 25.79272461 36.93457031 C24.58337988 38.81950264 24.58337988 38.81950264 23.30688477 41.61669922 C22.78481445 42.29087891 22.26274414 42.96505859 21.72485352 43.65966797 C18.53735352 43.97216797 18.53735352 43.97216797 15.72485352 43.65966797 C15.34973633 42.94681641 14.97461914 42.23396484 14.58813477 41.49951172 C14.07637695 40.54173828 13.56461914 39.58396484 13.03735352 38.59716797 C12.53848633 37.65744141 12.03961914 36.71771484 11.52563477 35.74951172 C9.48334339 32.24527641 7.0823186 28.96011908 4.72485352 25.65966797 C4.39485352 33.90966797 4.06485352 42.15966797 3.72485352 50.65966797 C-6.33374023 50.75732422 -6.33374023 50.75732422 -9.27514648 50.65966797 C-10.87566313 49.05915133 -10.40246121 47.37120674 -10.40454102 45.15576172 C-10.40769318 44.19806885 -10.41084534 43.24037598 -10.41409302 42.25366211 C-10.41206879 41.21201904 -10.41004456 40.17037598 -10.40795898 39.09716797 C-10.40891571 38.03554443 -10.40987244 36.9739209 -10.41085815 35.88012695 C-10.41154012 33.63053325 -10.40968467 31.3809376 -10.40551758 29.13134766 C-10.40016958 25.67459725 -10.40546203 22.2179768 -10.41186523 18.76123047 C-10.41120446 16.58154268 -10.4099233 14.40185497 -10.40795898 12.22216797 C-10.40998322 11.1805249 -10.41200745 10.13888184 -10.41409302 9.06567383 C-10.41094086 8.10798096 -10.4077887 7.15028809 -10.40454102 6.16357422 C-10.40374542 5.31609619 -10.40294983 4.46861816 -10.40213013 3.59545898 C-10.08735805 -1.20305643 -3.72756539 0.06190086 0 0 Z " fill="#ED3735" transform="translate(69.275146484375,216.34033203125)"/>
<path d="M0 0 C1.32 0.33 2.64 0.66 4 1 C4 4.3 4 7.6 4 11 C3.01 11 2.02 11 1 11 C0.67 11.99 0.34 12.98 0 14 C-0.99 14 -1.98 14 -3 14 C-3.66 15.32 -4.32 16.64 -5 18 C-15.56 18 -26.12 18 -37 18 C-35.85749293 25.48550424 -35.85749293 25.48550424 -33 28 C-33.66 28 -34.32 28 -35 28 C-35 29.65 -35 31.3 -35 33 C-35.66 33 -36.32 33 -37 33 C-37 33.66 -37 34.32 -37 35 C-56.8 35.33 -76.6 35.66 -97 36 C-98 33 -98 33 -97.0625 30.8125 C-96.5365625 29.9153125 -96.5365625 29.9153125 -96 29 C-96.66 28.67 -97.32 28.34 -98 28 C-94.7 27.67 -91.4 27.34 -88 27 C-87.34 24.36 -86.68 21.72 -86 19 C-86.89307861 18.98018066 -87.78615723 18.96036133 -88.70629883 18.93994141 C-92.02200708 18.86181302 -95.33726162 18.77512029 -98.65258789 18.68261719 C-100.08707068 18.64435134 -101.52164865 18.60949419 -102.95629883 18.578125 C-105.01938878 18.53242138 -107.08182495 18.47443807 -109.14453125 18.4140625 C-110.38565674 18.3826416 -111.62678223 18.3512207 -112.90551758 18.31884766 C-116 18 -116 18 -119 16 C-119 15.34 -119 14.68 -119 14 C-119.99 14 -120.98 14 -122 14 C-120.84826645 11.53199953 -119.95216435 9.95216435 -118 8 C-117.34 8.33 -116.68 8.66 -116 9 C-114.5371714 9.10039874 -113.06990221 9.13939141 -111.60365295 9.14717102 C-110.21769676 9.15790398 -110.21769676 9.15790398 -108.80374146 9.16885376 C-107.27872513 9.17288712 -107.27872513 9.17288712 -105.72290039 9.17700195 C-104.65453445 9.18357315 -103.58616852 9.19014435 -102.48542786 9.19691467 C-98.93950335 9.21667461 -95.39362118 9.22831451 -91.84765625 9.23828125 C-90.639653 9.24235678 -89.43164974 9.2464323 -88.18704033 9.25063133 C-81.79697718 9.27150069 -75.40693558 9.28580032 -69.0168457 9.29516602 C-62.4008884 9.30624972 -55.78526566 9.34067007 -49.16942692 9.38033772 C-44.09520317 9.40641585 -39.02106032 9.41484987 -33.94677544 9.41844749 C-31.50703095 9.42333399 -29.06729056 9.43500603 -26.62761116 9.45348549 C-23.22029787 9.47769587 -19.81386614 9.47694517 -16.40649414 9.4699707 C-15.39184082 9.48278076 -14.3771875 9.49559082 -13.33178711 9.50878906 C-12.40499649 9.50184525 -11.47820587 9.49490143 -10.52333069 9.48774719 C-9.71751588 9.49013555 -8.91170107 9.4925239 -8.08146763 9.49498463 C-5.24930688 8.82148098 -4.64710605 7.30923993 -3 5 C-2.01 5 -1.02 5 0 5 C0 3.35 0 1.7 0 0 Z " fill="#F73533" transform="translate(149,273)"/>
<path d="M0 0 C5.28 0 10.56 0 16 0 C16 20.13 16 40.26 16 61 C11.05 61 6.1 61 1 61 C1 57.7 1 54.4 1 51 C0.01 50.67 -0.98 50.34 -2 50 C-2.495 48.515 -2.495 48.515 -3 47 C-2.67 46.34 -2.34 45.68 -2 45 C-0.92982157 39.96154411 -0.78782427 35.01004988 -0.68359375 29.8828125 C-0.66281265 29.02565643 -0.64203156 28.16850037 -0.62062073 27.28536987 C-0.55558739 24.56532286 -0.49645659 21.84518483 -0.4375 19.125 C-0.39427076 17.27342834 -0.3506551 15.42186566 -0.30664062 13.5703125 C-0.19995379 9.04696669 -0.09855806 4.52352993 0 0 Z " fill="#F8F9F9" transform="translate(464,219)"/>
<path d="M0 0 C3.21279295 0.10355188 5.27809864 0.31017707 7.84204102 2.31591797 C9.39056637 4.69311365 10.56056588 7.07320489 11.72485352 9.65966797 C12.78721619 11.50523232 13.8703801 13.33899208 14.97485352 15.15966797 C15.45438477 15.99498047 15.93391602 16.83029297 16.42797852 17.69091797 C17.57842783 19.79517155 17.57842783 19.79517155 19.72485352 20.65966797 C22.69485352 15.70966797 25.66485352 10.75966797 28.72485352 5.65966797 C29.78085848 9.88368784 29.70599832 10.59426794 28.03735352 14.34716797 C27.70348633 15.13478516 27.36961914 15.92240234 27.02563477 16.73388672 C25.72485352 18.65966797 25.72485352 18.65966797 23.58032227 19.42919922 C22.96801758 19.50525391 22.35571289 19.58130859 21.72485352 19.65966797 C21.39485352 21.30966797 21.06485352 22.95966797 20.72485352 24.65966797 C16.72485352 24.65966797 16.72485352 24.65966797 13.97485352 22.15966797 C13.23235352 21.33466797 12.48985352 20.50966797 11.72485352 19.65966797 C11.72485352 20.97966797 11.72485352 22.29966797 11.72485352 23.65966797 C10.73485352 23.98966797 9.74485352 24.31966797 8.72485352 24.65966797 C8.39485352 23.99966797 8.06485352 23.33966797 7.72485352 22.65966797 C7.06485352 22.65966797 6.40485352 22.65966797 5.72485352 22.65966797 C4.68770829 25.77110364 4.5245349 28.15434892 4.40844727 31.42138672 C4.36655273 32.53964844 4.3246582 33.65791016 4.28149414 34.81005859 C4.24217773 35.97730469 4.20286133 37.14455078 4.16235352 38.34716797 C4.11916992 39.52601563 4.07598633 40.70486328 4.03149414 41.91943359 C3.92534176 44.8327268 3.82329109 47.74610554 3.72485352 50.65966797 C1.57908715 50.68652735 -0.56677294 50.70599885 -2.71264648 50.72216797 C-3.90760742 50.73376953 -5.10256836 50.74537109 -6.33374023 50.75732422 C-9.27514648 50.65966797 -9.27514648 50.65966797 -10.27514648 49.65966797 C-10.37345795 48.16096749 -10.40313105 46.65768258 -10.40454102 45.15576172 C-10.40769318 44.19806885 -10.41084534 43.24037598 -10.41409302 42.25366211 C-10.41206879 41.21201904 -10.41004456 40.17037598 -10.40795898 39.09716797 C-10.40891571 38.03554443 -10.40987244 36.9739209 -10.41085815 35.88012695 C-10.41154012 33.63053325 -10.40968467 31.3809376 -10.40551758 29.13134766 C-10.40016958 25.67459725 -10.40546203 22.2179768 -10.41186523 18.76123047 C-10.41120446 16.58154268 -10.4099233 14.40185497 -10.40795898 12.22216797 C-10.40998322 11.1805249 -10.41200745 10.13888184 -10.41409302 9.06567383 C-10.41094086 8.10798096 -10.4077887 7.15028809 -10.40454102 6.16357422 C-10.40374542 5.31609619 -10.40294983 4.46861816 -10.40213013 3.59545898 C-10.08735805 -1.20305643 -3.72756539 0.06190086 0 0 Z " fill="#E13231" transform="translate(69.275146484375,216.34033203125)"/>
<path d="M0 0 C1.08977142 -0.00554901 2.17954285 -0.01109802 3.30233765 -0.01681519 C6.90757081 -0.02863469 10.51155382 -0.00431427 14.11669922 0.02148438 C16.61725812 0.02319465 19.11781882 0.02313065 21.61837769 0.0213623 C26.85901099 0.02301677 32.09932043 0.04116117 37.33984375 0.07324219 C43.40210549 0.11017278 49.46389523 0.11891237 55.52625477 0.11194468 C61.35690303 0.10564517 67.18738559 0.11659366 73.01800156 0.13591003 C75.50040773 0.14295943 77.98282825 0.14606223 80.46524429 0.1452179 C83.92761632 0.14700758 87.38930757 0.16831755 90.8515625 0.1953125 C91.88537048 0.1923819 92.91917847 0.18945129 93.98431396 0.18643188 C95.39334488 0.20345657 95.39334488 0.20345657 96.83084106 0.2208252 C97.64972872 0.22455391 98.46861637 0.22828262 99.3123188 0.23212433 C99.96706121 0.35855064 100.62180363 0.48497696 101.29638672 0.61523438 C102.28638672 2.10023438 102.28638672 2.10023438 103.29638672 3.61523438 C102.72193408 3.61339079 102.14748144 3.6115472 101.55562115 3.60964775 C87.58471605 3.56549931 73.61382315 3.53252033 59.64286327 3.51161003 C52.88663924 3.50129281 46.13046174 3.48722401 39.37426758 3.46435547 C32.85798122 3.44230947 26.34172511 3.43067571 19.82540321 3.42547989 C17.33543447 3.42177563 14.84546846 3.41454247 12.35552025 3.40377426 C8.87635888 3.38932222 5.39739929 3.38725381 1.91821289 3.38818359 C0.36346756 3.37739777 0.36346756 3.37739777 -1.22268677 3.36639404 C-2.16919601 3.36914337 -3.11570526 3.3718927 -4.09089661 3.37472534 C-4.91405774 3.37288176 -5.73721888 3.37103817 -6.58532429 3.36913872 C-9.00479416 3.48742836 -9.00479416 3.48742836 -11.70361328 5.61523438 C-12.1837782 8.80859395 -12.1837782 8.80859395 -12.13598633 12.63525391 C-12.14617798 13.35731018 -12.15636963 14.07936646 -12.16687012 14.82330322 C-12.19711517 17.21496218 -12.20628322 19.60622143 -12.21533203 21.99804688 C-12.23217026 23.65430037 -12.25031933 25.31054101 -12.26972961 26.96676636 C-12.31732906 31.32985419 -12.34707383 35.69288996 -12.37316895 40.05615234 C-12.40292453 44.50694058 -12.44947191 48.95754922 -12.49462891 53.40820312 C-12.58077504 62.14379218 -12.6480697 70.87939741 -12.70361328 79.61523438 C-9.71352509 81.33257629 -7.57922333 81.86377483 -4.14268494 81.85574341 C-3.23279312 81.85849274 -2.32290131 81.86124207 -1.38543701 81.86407471 C0.10074127 81.85328888 0.10074127 81.85328888 1.61694336 81.84228516 C2.66609421 81.84257721 3.71524506 81.84286926 4.79618835 81.84317017 C8.26639052 81.84177619 11.73637827 81.82620882 15.20654297 81.81054688 C17.61502465 81.8068162 20.02350784 81.80396949 22.43199158 81.80197144 C28.77499576 81.79433276 35.11790846 81.77468629 41.46087646 81.75256348 C47.91970588 81.7321347 54.37854995 81.72296956 60.83740234 81.71289062 C72.9755515 81.69238607 85.11364052 81.6608104 97.25174046 81.620821 C98.93328396 81.61622649 100.61483693 81.61523438 102.29638672 81.61523438 C102.29638672 82.27523437 102.29638672 82.93523437 102.29638672 83.61523438 C99.93470451 84.79607548 98.53340498 84.73850268 95.90003967 84.73548889 C94.51408348 84.73755089 94.51408348 84.73755089 93.10012817 84.73965454 C92.08345062 84.73605927 91.06677307 84.73246399 90.01928711 84.72875977 C88.95092117 84.72890579 87.88255524 84.72905182 86.78181458 84.72920227 C83.23587034 84.72850336 79.68997808 84.72071061 76.14404297 84.71289062 C73.68786142 84.71102598 71.23167949 84.7096023 68.77549744 84.70860291 C62.2976886 84.70477819 55.81990206 84.6949503 49.34210205 84.68389893 C42.74939271 84.67369584 36.1566798 84.66910446 29.56396484 84.6640625 C17.16858578 84.65380145 4.77322139 84.63800664 -7.62214565 84.61802769 C-9.31596693 84.61575459 -11.00979048 84.61523438 -12.70361328 84.61523438 C-14.40893651 86.5553296 -14.40893651 86.5553296 -15.70361328 88.61523438 C-14.71361328 88.61523438 -13.72361328 88.61523438 -12.70361328 88.61523438 C-12.29264404 89.09968018 -11.8816748 89.58412598 -11.45825195 90.08325195 C-8.72683675 92.46806209 -6.19189685 92.054249 -2.62939453 92.12695312 C-1.60364571 92.15387993 -1.60364571 92.15387993 -0.55717468 92.18135071 C1.62311672 92.23545513 3.80318927 92.26934777 5.98388672 92.30273438 C7.46373489 92.33590757 8.94355417 92.37039724 10.42333984 92.40625 C14.04747841 92.49117961 17.67169323 92.55799072 21.29638672 92.61523438 C20.96638672 93.27523437 20.63638672 93.93523437 20.29638672 94.61523438 C16.2946033 94.68991595 12.29309505 94.74408459 8.29077148 94.7800293 C6.93197555 94.79502847 5.57322731 94.81543476 4.21459961 94.84155273 C-5.02650051 95.01463246 -10.96268574 94.77585273 -18.70361328 89.61523438 C-18.70361328 88.95523438 -18.70361328 88.29523438 -18.70361328 87.61523438 C-19.36361328 87.61523438 -20.02361328 87.61523438 -20.70361328 87.61523438 C-21.77136553 85.65057024 -22.76914793 83.64668078 -23.70361328 81.61523438 C-23.20861328 80.62523437 -23.20861328 80.62523437 -22.70361328 79.61523438 C-21.38361328 80.27523437 -20.06361328 80.93523437 -18.70361328 81.61523438 C-18.04361328 80.29523438 -17.38361328 78.97523438 -16.70361328 77.61523438 C-16.04361328 77.61523438 -15.38361328 77.61523438 -14.70361328 77.61523438 C-14.71249573 76.72431595 -14.72137817 75.83339752 -14.73052979 74.91548157 C-14.81072042 66.5141739 -14.87160043 58.112995 -14.91086197 49.7113924 C-14.93172549 45.39214548 -14.96002015 41.07321513 -15.00537109 36.75415039 C-15.04887355 32.58497703 -15.07275969 28.41610792 -15.08312225 24.24672508 C-15.09050578 22.65709837 -15.10492432 21.06748808 -15.12653351 19.4779911 C-15.15562737 17.24904188 -15.15956699 15.02134528 -15.15771484 12.79223633 C-15.16659729 11.52426712 -15.17547974 10.25629791 -15.18463135 8.9499054 C-13.83441787 -0.41048677 -7.99347977 -0.10295557 0 0 Z " fill="#A32C2D" transform="translate(42.70361328125,198.384765625)"/>
<path d="M0 0 C1.08977142 -0.00554901 2.17954285 -0.01109802 3.30233765 -0.01681519 C6.90757081 -0.02863469 10.51155382 -0.00431427 14.11669922 0.02148438 C16.61725812 0.02319465 19.11781882 0.02313065 21.61837769 0.0213623 C26.85901099 0.02301677 32.09932043 0.04116117 37.33984375 0.07324219 C43.40210549 0.11017278 49.46389523 0.11891237 55.52625477 0.11194468 C61.35690303 0.10564517 67.18738559 0.11659366 73.01800156 0.13591003 C75.50040773 0.14295943 77.98282825 0.14606223 80.46524429 0.1452179 C83.92761632 0.14700758 87.38930757 0.16831755 90.8515625 0.1953125 C91.88537048 0.1923819 92.91917847 0.18945129 93.98431396 0.18643188 C95.39334488 0.20345657 95.39334488 0.20345657 96.83084106 0.2208252 C97.64972872 0.22455391 98.46861637 0.22828262 99.3123188 0.23212433 C99.96706121 0.35855064 100.62180363 0.48497696 101.29638672 0.61523438 C102.28638672 2.10023438 102.28638672 2.10023438 103.29638672 3.61523438 C102.72285587 3.612469 102.14932503 3.60970362 101.55841446 3.60685444 C87.60386679 3.54060464 73.64934667 3.49115021 59.69467545 3.45979786 C52.94629519 3.44432819 46.19801991 3.4232369 39.44970703 3.38891602 C32.93990216 3.35582392 26.43016548 3.33839179 19.92028046 3.33060265 C17.43391959 3.32505018 14.94756483 3.3142079 12.46125031 3.2980442 C8.98461391 3.2763368 5.5084313 3.27326471 2.03173828 3.2746582 C0.48238586 3.25847946 0.48238586 3.25847946 -1.0982666 3.24197388 C-2.04615051 3.24609787 -2.99403442 3.25022186 -3.97064209 3.25447083 C-4.79288143 3.25170545 -5.61512077 3.24894007 -6.46227646 3.24609089 C-9.28066969 3.71027436 -10.65394404 4.64881328 -12.70361328 6.61523438 C-13.32479322 9.73872844 -13.32479322 9.73872844 -13.24951172 13.3815918 C-13.2598494 14.06477982 -13.27018707 14.74796783 -13.28083801 15.45185852 C-13.31031878 17.70837914 -13.31176618 19.96400488 -13.31298828 22.22070312 C-13.32796651 23.78585018 -13.34469291 25.35098141 -13.36309814 26.91609192 C-13.40682466 31.03425818 -13.42678226 35.15221124 -13.4418335 39.27056885 C-13.46138567 43.47347652 -13.5033577 47.67615328 -13.54345703 51.87890625 C-13.61881642 60.12428863 -13.66907291 68.36958047 -13.70361328 76.61523438 C-14.03361328 76.61523438 -14.36361328 76.61523438 -14.70361328 76.61523438 C-14.7963504 67.44440589 -14.86739684 58.27373915 -14.91086197 49.10254383 C-14.9317246 44.84382867 -14.96001759 40.58543464 -15.00537109 36.3269043 C-15.0488768 32.21608518 -15.07276035 28.10557467 -15.08312225 23.99454308 C-15.09050521 22.42724437 -15.10492264 20.85996228 -15.12653351 19.29279518 C-15.1556318 17.0949739 -15.15956683 14.89842281 -15.15771484 12.70043945 C-15.16659729 11.45023514 -15.17547974 10.20003082 -15.18463135 8.91194153 C-13.82311432 -0.41935646 -7.96437678 -0.10258072 0 0 Z " fill="#AC363A" transform="translate(42.70361328125,198.384765625)"/>
<path d="M0 0 C0.99 0.495 0.99 0.495 2 1 C2 1.66 2 2.32 2 3 C-0.36648883 4.18324441 -1.7773132 4.12326046 -4.41653442 4.12025452 C-5.80899384 4.12231651 -5.80899384 4.12231651 -7.22958374 4.12442017 C-8.25097443 4.12082489 -9.27236511 4.11722961 -10.32470703 4.11352539 C-11.93448425 4.11374443 -11.93448425 4.11374443 -13.57678223 4.1139679 C-17.13714595 4.11326917 -20.69745787 4.10547861 -24.2578125 4.09765625 C-26.72118094 4.09579193 -29.18454976 4.09436809 -31.6479187 4.09336853 C-38.14167295 4.08954446 -44.63540495 4.07971511 -51.12915039 4.06866455 C-57.75146178 4.05844806 -64.37377676 4.0538704 -70.99609375 4.04882812 C-83.99740534 4.03809276 -96.99870149 4.021209 -110 4 C-110 3.34 -110 2.68 -110 2 C-109.43916497 1.99576806 -108.87832994 1.99153612 -108.30049992 1.98717594 C-94.67238704 1.88400153 -81.04432775 1.7753207 -67.4163065 1.66066074 C-60.82597632 1.60538055 -54.23564176 1.55195255 -47.64526367 1.50268555 C-41.29104033 1.45511699 -34.93687292 1.40277719 -28.58271599 1.34705925 C-26.15251995 1.32660156 -23.72230855 1.30789427 -21.29208565 1.29092598 C-17.90112857 1.2669573 -14.51027834 1.2368928 -11.11938477 1.20532227 C-10.10374954 1.1995668 -9.08811432 1.19381134 -8.04170227 1.18788147 C-7.12318481 1.17809265 -6.20466736 1.16830383 -5.25831604 1.15821838 C-4.45543435 1.15176583 -3.65255266 1.14531328 -2.82534122 1.1386652 C-0.98071327 1.19788427 -0.98071327 1.19788427 0 0 Z " fill="#8D2B34" transform="translate(143,279)"/>
<path d="M0 0 C0.99 0 1.98 0 3 0 C3 24.75 3 49.5 3 75 C1.02 75.495 1.02 75.495 -1 76 C-0.67 75.01 -0.34 74.02 0 73 C0.0900654 70.65417398 0.11756593 68.30580284 0.11352539 65.95825195 C0.11374443 64.88957886 0.11374443 64.88957886 0.1139679 63.79931641 C0.11327151 61.445607 0.10549192 59.09197683 0.09765625 56.73828125 C0.0957911 55.10589135 0.09436765 53.47350089 0.09336853 51.84111023 C0.08955101 47.54538425 0.07972724 43.24969211 0.06866455 38.95397949 C0.05843399 34.57023577 0.05386738 30.18648659 0.04882812 25.80273438 C0.0381043 17.2018074 0.02103705 8.60090791 0 0 Z " fill="#C54040" transform="translate(146,203)"/>
<path d="M0 0 C0.5625 1.9375 0.5625 1.9375 1 4 C-1.04698414 6.04698414 -5.30411241 5.70045693 -8 6 C-8.33 7.98 -8.66 9.96 -9 12 C15.09 12.33 39.18 12.66 64 13 C64 12.34 64 11.68 64 11 C64.66 11 65.32 11 66 11 C65.505 7.535 65.505 7.535 65 4 C65.99 4.66 66.98 5.32 68 6 C68.47730962 9.72301503 68.1387261 10.79191085 66 14 C63.45647517 14.28660203 61.15713036 14.37857678 58.61279297 14.34057617 C57.47118713 14.34123329 57.47118713 14.34123329 56.30651855 14.34190369 C53.78481607 14.33980959 51.26377417 14.31645001 48.7421875 14.29296875 C46.99627038 14.28737499 45.25034856 14.28310385 43.50442505 14.28010559 C38.9044296 14.26863948 34.30471737 14.23915727 29.70483398 14.20599365 C25.01289705 14.17533071 20.32091445 14.16160835 15.62890625 14.14648438 C6.41914625 14.11428913 -2.79040334 14.06307159 -12 14 C-13.50662097 10.98675805 -13.17770373 8.31713623 -13 5 C-10.3775285 2.3775285 -8.64976873 2.35782046 -5 2 C-2.125 2.4375 -2.125 2.4375 0 3 C0 2.01 0 1.02 0 0 Z " fill="#BB4140" transform="translate(61,296)"/>
<path d="M0 0 C1.47231079 -0.00412399 1.47231079 -0.00412399 2.97436523 -0.0083313 C4.57982208 0.00245453 4.57982208 0.00245453 6.2177124 0.01345825 C7.91570984 0.01302017 7.91570984 0.01302017 9.64801025 0.01257324 C13.39235073 0.01396738 17.1364926 0.02953282 20.88079834 0.04519653 C23.47582897 0.04892636 26.07086101 0.05177347 28.66589355 0.05377197 C34.79984354 0.06062991 40.93371147 0.07639535 47.06763053 0.09647095 C54.05186088 0.11883288 61.03609465 0.12982412 68.02035189 0.13986182 C82.38533068 0.16076169 96.75024948 0.19593584 111.11517334 0.24050903 C111.11517334 0.57050903 111.11517334 0.90050903 111.11517334 1.24050903 C73.49517334 1.24050903 35.87517334 1.24050903 -2.88482666 1.24050903 C-2.88482666 1.90050903 -2.88482666 2.56050903 -2.88482666 3.24050903 C-3.87482666 3.24050903 -4.86482666 3.24050903 -5.88482666 3.24050903 C-6.21482666 4.23050903 -6.54482666 5.22050903 -6.88482666 6.24050903 C-8.86482666 6.57050903 -10.84482666 6.90050903 -12.88482666 7.24050903 C-12.22482666 6.25050903 -11.56482666 5.26050903 -10.88482666 4.24050903 C-10.22482666 4.24050903 -9.56482666 4.24050903 -8.88482666 4.24050903 C-8.88482666 3.58050903 -8.88482666 2.92050903 -8.88482666 2.24050903 C-5.79098834 0.44235283 -3.56290737 -0.00771192 0 0 Z " fill="#C1403E" transform="translate(34.88482666015625,189.75949096679688)"/>
<path d="M0 0 C2 4 2 4 1.875 5.875 C-0.74874965 12.24696344 -4.007552 15.0582528 -10 18 C-13.35735137 19.11911712 -15.88205386 19.11365586 -19.41796875 19.09765625 C-20.67158203 19.09443359 -21.92519531 19.09121094 -23.21679688 19.08789062 C-24.52712891 19.07951172 -25.83746094 19.07113281 -27.1875 19.0625 C-28.52278481 19.05748317 -29.85807141 19.05292059 -31.19335938 19.04882812 C-34.46228473 19.03702695 -37.73111991 19.02056297 -41 19 C-40.67 20.98 -40.34 22.96 -40 25 C-36.37 25 -32.74 25 -29 25 C-29 25.33 -29 25.66 -29 26 C-32.96 26 -36.92 26 -41 26 C-42.88343932 22.23312136 -43.22057835 20.97041037 -43 17 C-41.56164795 16.97812622 -41.56164795 16.97812622 -40.09423828 16.95581055 C-36.5417726 16.89790493 -32.98994602 16.82067329 -29.43798828 16.73754883 C-27.89968221 16.7042627 -26.36125293 16.67624222 -24.82275391 16.65356445 C-22.61307182 16.62008442 -20.40452265 16.5677769 -18.1953125 16.51171875 C-17.16085495 16.50213387 -17.16085495 16.50213387 -16.10549927 16.49235535 C-13.95314611 16.45974286 -13.95314611 16.45974286 -11 16 C-10.34 15.01 -9.68 14.02 -9 13 C-8.01 13 -7.02 13 -6 13 C-5.67 11.68 -5.34 10.36 -5 9 C-4.01 9.33 -3.02 9.66 -2 10 C-1.34 6.7 -0.68 3.4 0 0 Z " fill="#A13438" transform="translate(155,274)"/>
<path d="M0 0 C1.32 0.33 2.64 0.66 4 1 C4 1.66 4 2.32 4 3 C5.423125 2.9690625 5.423125 2.9690625 6.875 2.9375 C10 3 10 3 12 4 C12.66 3.34 13.32 2.68 14 2 C15.31747324 1.30251417 16.64914193 0.63040043 18 0 C16.43358249 4.30764815 14.31663844 8.06171464 12 12 C10.02 12 8.04 12 6 12 C4.02 8.04 2.04 4.08 0 0 Z " fill="#DE3639" transform="translate(79,248)"/>
<path d="M0 0 C1.23800682 3.49038052 0.80144052 5.33876761 -0.6875 8.6875 C-1.02136719 9.47511719 -1.35523437 10.26273438 -1.69921875 11.07421875 C-3 13 -3 13 -5.14453125 13.76953125 C-5.75683594 13.84558594 -6.36914062 13.92164063 -7 14 C-7.33 15.65 -7.66 17.3 -8 19 C-12 19 -12 19 -13.625 17.875 C-15.47587518 15.3510793 -16.2572532 13.03288276 -17 10 C-16.67 8.68 -16.34 7.36 -16 6 C-14.02 8.97 -12.04 11.94 -10 15 C-6.00887919 10.39486061 -3.05543741 5.24516756 0 0 Z " fill="#BA3536" transform="translate(98,222)"/>
<path d="M0 0 C0.66 0 1.32 0 2 0 C1.99777939 0.85555481 1.99555878 1.71110962 1.99327087 2.59259033 C1.97323297 10.6557899 1.95800798 18.71898111 1.94818783 26.78219986 C1.94296949 30.92756462 1.93589083 35.0729088 1.92456055 39.21826172 C1.91369446 43.21882072 1.90771525 47.21935993 1.90512276 51.21993256 C1.90327523 52.74614524 1.8996675 54.27235684 1.89426994 55.7985611 C1.88701015 57.93636923 1.88601115 60.07409559 1.88647461 62.21191406 C1.884254 63.4288092 1.88203339 64.64570435 1.87974548 65.8994751 C1.87437965 68.88944812 1.87437965 68.88944812 2.63209534 71.23675537 C2.75350388 71.8186261 2.87491241 72.40049683 3 73 C2.34 73.99 1.68 74.98 1 76 C-0.66165207 74.33834793 -0.11959725 72.3348397 -0.12442017 70.11598206 C-0.12082489 69.41827194 -0.11722961 68.72056183 -0.11352539 68.00170898 C-0.11367142 67.27004517 -0.11381744 66.53838135 -0.1139679 65.7845459 C-0.11326867 63.35503216 -0.10547585 60.92559417 -0.09765625 58.49609375 C-0.0957921 56.81600486 -0.09436819 55.13591543 -0.09336853 53.45582581 C-0.08954307 49.02526357 -0.07971256 44.5947339 -0.06866455 40.16418457 C-0.05845103 35.64657024 -0.05387104 31.12895066 -0.04882812 26.61132812 C-0.03809031 17.74087107 -0.02101356 8.87043824 0 0 Z " fill="#E43D39" transform="translate(19,203)"/>
<path d="M0 0 C-1.875 3.875 -1.875 3.875 -3 5 C-3.12401914 7.17731389 -3.1780151 9.35863454 -3.20532227 11.53930664 C-3.21522186 12.22220261 -3.22512146 12.90509857 -3.23532104 13.60868835 C-3.26701935 15.87580853 -3.29172613 18.14294969 -3.31640625 20.41015625 C-3.3369686 21.97815001 -3.35796488 23.54613813 -3.37937927 25.11412048 C-3.43467424 29.24870248 -3.48405062 33.38333511 -3.53222656 37.51800537 C-3.58238753 41.73405483 -3.63810174 45.95003043 -3.69335938 50.16601562 C-3.8010317 58.44394803 -3.90245635 66.72194208 -4 75 C-4.33 75 -4.66 75 -5 75 C-5.06950833 65.81187078 -5.12281539 56.62383206 -5.15543652 47.43549728 C-5.17109298 43.16898055 -5.19233076 38.90264368 -5.22631836 34.63623047 C-5.25891271 30.51894614 -5.27685316 26.40183484 -5.28463173 22.28443146 C-5.29017512 20.71353685 -5.30100004 19.14265171 -5.31719017 17.57183075 C-5.33896601 15.37157217 -5.34196695 13.17202867 -5.34057617 10.97167969 C-5.34723801 9.71925476 -5.35389984 8.46682983 -5.36076355 7.17645264 C-4.95277643 3.58420571 -4.15712355 0 0 0 Z " fill="#CC4847" transform="translate(33,200)"/>
<path d="M0 0 C4.95 0 9.9 0 15 0 C15.66 1.32 16.32 2.64 17 4 C16.01 3.67 15.02 3.34 14 3 C11.77425665 2.77548542 9.54418481 2.59217122 7.3125 2.4375 C5.229375 2.293125 3.14625 2.14875 1 2 C1 8.93 1 15.86 1 23 C0.67 23 0.34 23 0 23 C0 15.41 0 7.82 0 0 Z " fill="#B73A3D" transform="translate(60,217)"/>
<path d="M0 0 C2 4 2 4 1.875 5.875 C-0.71641396 12.16843391 -3.94976565 15.24989348 -10 18 C-10.99 17.67 -11.98 17.34 -13 17 C-11.1875 15 -11.1875 15 -9 13 C-8.01 13 -7.02 13 -6 13 C-5.67 11.68 -5.34 10.36 -5 9 C-4.01 9.33 -3.02 9.66 -2 10 C-1.34 6.7 -0.68 3.4 0 0 Z " fill="#BF3738" transform="translate(155,274)"/>
<path d="M0 0 C0.5625 1.9375 0.5625 1.9375 1 4 C-1.04698414 6.04698414 -5.30411241 5.70045693 -8 6 C-8.33 8.31 -8.66 10.62 -9 13 C-9.66 13 -10.32 13 -11 13 C-12.125 6.375 -12.125 6.375 -11 3 C-6.98195309 2.15901344 -3.98196457 1.94595055 0 3 C0 2.01 0 1.02 0 0 Z " fill="#C53839" transform="translate(61,296)"/>
<path d="M0 0 C0.66 0 1.32 0 2 0 C0.43358249 4.30764815 -1.68336156 8.06171464 -4 12 C-5.98 12 -7.96 12 -10 12 C-10.33 10.68 -10.66 9.36 -11 8 C-9.02 8.99 -7.04 9.98 -5 11 C-4.34 8.03 -3.68 5.06 -3 2 C-2.34 2 -1.68 2 -1 2 C-0.67 1.34 -0.34 0.68 0 0 Z " fill="#A83234" transform="translate(95,248)"/>
<path d="M0 0 C1.2536419 3.51180455 0.77956527 5.33464859 -0.75 8.6875 C-1.09546875 9.47511719 -1.4409375 10.26273438 -1.796875 11.07421875 C-3 13 -3 13 -6 14 C-5.57202798 8.29370646 -3.15654048 4.58921384 0 0 Z " fill="#C03635" transform="translate(98,222)"/>
<path d="M0 0 C0.66 0.99 1.32 1.98 2 3 C0.68 3.99 -0.64 4.98 -2 6 C-2.33 5.67 -2.66 5.34 -3 5 C-4.68608966 4.92794489 -6.37500659 4.91613932 -8.0625 4.9375 C-8.98160156 4.94652344 -9.90070313 4.95554687 -10.84765625 4.96484375 C-11.55792969 4.97644531 -12.26820313 4.98804688 -13 5 C-13 4.67 -13 4.34 -13 4 C-12.39671875 3.96261719 -11.7934375 3.92523438 -11.171875 3.88671875 C-5.00632228 3.43746659 -5.00632228 3.43746659 0 0 Z " fill="#848586" transform="translate(461,262)"/>
<path d="M0 0 C0.33 0 0.66 0 1 0 C1.33 3.63 1.66 7.26 2 11 C-2 6.5 -2 6.5 -2 2 C-1.34 2 -0.68 2 0 2 C0 1.34 0 0.68 0 0 Z " fill="#C9373A" transform="translate(77,237)"/>
<path d="M0 0 C0.66 0.33 1.32 0.66 2 1 C2 1.66 2 2.32 2 3 C-1.06533164 4.53266582 -4.26754272 4.10276471 -7.625 4.0625 C-8.33140625 4.05798828 -9.0378125 4.05347656 -9.765625 4.04882812 C-11.51045275 4.03703875 -13.255237 4.01910324 -15 4 C-15 3.67 -15 3.34 -15 3 C-13.62714844 2.92652344 -13.62714844 2.92652344 -12.2265625 2.8515625 C-11.03804687 2.77679688 -9.84953125 2.70203125 -8.625 2.625 C-7.44164062 2.55539062 -6.25828125 2.48578125 -5.0390625 2.4140625 C-1.89437681 2.29782654 -1.89437681 2.29782654 0 0 Z " fill="#C93C3F" transform="translate(143,279)"/>
<path d="M0 0 C-1.875 3.875 -1.875 3.875 -3 5 C-3.23363881 6.84891946 -3.41303635 8.70488031 -3.5625 10.5625 C-3.64628906 11.57441406 -3.73007812 12.58632812 -3.81640625 13.62890625 C-3.87699219 14.41136719 -3.93757813 15.19382813 -4 16 C-4.33 16 -4.66 16 -5 16 C-5.08133791 14.08404032 -5.13934367 12.16708068 -5.1875 10.25 C-5.22230469 9.18265625 -5.25710937 8.1153125 -5.29296875 7.015625 C-4.94860213 3.47094463 -4.06391445 0 0 0 Z " fill="#C24143" transform="translate(33,200)"/>
<path d="M0 0 C1.98 0 3.96 0 6 0 C5.01 0.33 4.02 0.66 3 1 C2.67 1.99 2.34 2.98 2 4 C0.02 4.33 -1.96 4.66 -4 5 C-3.34 4.01 -2.68 3.02 -2 2 C-1.34 2 -0.68 2 0 2 C0 1.34 0 0.68 0 0 Z " fill="#C93939" transform="translate(26,192)"/>
<path d="M0 0 C1.32 0 2.64 0 4 0 C2.86280581 3.41158256 1.95657056 4.11854601 -1 6 C-1.66 6 -2.32 6 -3 6 C-1.125 1.125 -1.125 1.125 0 0 Z " fill="#F03937" transform="translate(146,278)"/>
<path d="M0 0 C1.2077558 3.62326739 0.54311128 4.64146369 -1 8 C-2.32 7.67 -3.64 7.34 -5 7 C-4.67 5.68 -4.34 4.36 -4 3 C-3.34 3.33 -2.68 3.66 -2 4 C-1.34 2.68 -0.68 1.36 0 0 Z " fill="#942C2A" transform="translate(91,233)"/>
<path d="M0 0 C0.66 0.33 1.32 0.66 2 1 C2.625 3.5625 2.625 3.5625 3 6 C2.01 6.495 2.01 6.495 1 7 C0.34 6.34 -0.32 5.68 -1 5 C-0.625 2.375 -0.625 2.375 0 0 Z " fill="#F8FBFB" transform="translate(306,256)"/>
<path d="M0 0 C0.66 0 1.32 0 2 0 C1.5020163 3.73487777 1.12508244 5.81237635 -1 9 C-1.80967438 6.08517222 -2.21845993 4.53886783 -1.0625 1.6875 C-0.711875 1.130625 -0.36125 0.57375 0 0 Z " fill="#919293" transform="translate(414,222)"/>
</svg>
